<svg width="761" height="622" viewBox="0 0 761 622" fill="none" xmlns="http://www.w3.org/2000/svg">
<path d="M678.829 317.803C678.85 316.38 678.862 314.956 678.862 313.542C678.862 272.33 670.705 232.298 654.618 194.557C640.358 161.115 620.41 130.771 595.334 104.315L595.348 104.288L593.92 102.807C593.913 102.799 593.905 102.791 593.897 102.784L591.17 99.9447L591.156 99.9722C590.326 99.1298 589.49 98.2929 588.648 97.4614C560.405 69.4337 527.477 47.4122 490.777 32.0088C455.582 17.2437 418.344 9.2199 380.066 8.11294L380.059 8.09207L378 8.04275L377.971 8.0418L374.01 7.95264L374.017 7.9754C372.958 7.96402 371.898 7.95643 370.844 7.95643C329.31 7.95643 288.963 16.0485 250.922 32.0088C217.129 46.1924 186.488 66.0379 159.797 90.9838L159.779 90.9743L158.298 92.3715L158.284 92.3848L155.399 95.1176L155.422 95.1299C154.626 95.9039 153.834 96.6817 153.055 97.4586C124.805 125.477 102.608 158.145 87.0822 194.555C72.3019 229.231 64.2181 265.904 63.0115 303.584L62.9876 303.591L62.935 305.632V305.639L62.8346 309.597L62.8614 309.588C62.8461 310.869 62.8384 312.179 62.8384 313.54C62.8384 354.745 70.9949 394.774 87.0812 432.515C101.186 465.596 120.872 495.654 145.584 521.907L145.576 521.922L146.95 523.372L146.984 523.408L149.738 526.294L149.746 526.279C150.837 527.401 151.936 528.515 153.043 529.621C181.309 557.654 214.24 579.672 250.921 595.061C285.48 609.566 322.06 617.571 359.678 618.898L359.686 618.923L361.733 618.981H361.735L365.745 619.096L365.739 619.073C367.548 619.106 369.248 619.124 370.842 619.124C412.369 619.124 452.719 611.028 490.774 595.061C524.025 581.104 554.267 561.629 580.712 537.181L580.735 537.193L582.218 535.802L582.225 535.796L585.142 533.063L585.121 533.053C586.307 531.92 587.48 530.776 588.642 529.62C616.902 501.583 639.098 468.912 654.614 432.515C669.344 397.964 677.421 361.401 678.665 323.809L678.685 323.802L678.743 321.767V321.744L678.847 317.794L678.829 317.803V317.803ZM592.512 109.63C616.489 135.257 635.595 164.555 649.334 196.774C665.121 233.81 673.125 273.096 673.125 313.543C673.125 315.545 673.104 317.567 673.062 319.577L571.113 350.939L479.797 320.072C481.426 293.196 472.897 266.682 455.877 245.71L542.779 203.321L592.512 109.63V109.63ZM437.591 391.836C418.936 407.507 395.231 416.137 370.844 416.137C368.136 416.137 365.328 416.022 362.499 415.795L362.48 415.793C335.309 413.63 310.472 401.086 292.541 380.47C276.358 361.867 267.45 338.114 267.442 313.541C267.442 311.256 267.524 308.915 267.684 306.582L267.685 306.562C269.528 279.421 281.953 254.528 302.674 236.465L302.687 236.452C321.556 220.004 345.76 210.945 370.842 210.945C373.152 210.945 375.516 211.025 377.867 211.185L377.88 211.186C405.597 213.043 430.914 225.624 449.166 246.61L449.183 246.63C458.12 256.915 464.909 268.859 469.155 281.768C473.402 294.677 475.021 308.294 473.92 321.829L473.919 321.836C471.705 349.153 458.802 374.013 437.591 391.836V391.836ZM488.542 37.2504C524.558 52.3665 556.873 73.9782 584.595 101.49C585.857 102.737 587.106 103.996 588.344 105.267L538.573 199.031L452.042 241.238C433.733 221 409.042 208.533 381.963 205.817L413.319 114.52L381.859 13.8479C418.735 15.1464 454.606 23.0137 488.542 37.2504V37.2504ZM253.157 37.2514C291.995 20.9572 333.297 12.978 375.803 13.6904L407.288 114.437L376.053 205.381C374.318 205.297 372.582 205.255 370.845 205.254C345.607 205.254 321.209 213.943 301.733 229.793L258.496 142.546L165.155 93.783C191.011 69.926 220.597 50.9181 253.157 37.2514V37.2514ZM68.7968 301.805C70.1946 265.516 78.1178 230.201 92.3656 196.773C107.603 161.042 129.386 128.982 157.116 101.479C158.318 100.281 159.532 99.0936 160.757 97.9186L254.171 146.72L297.249 233.647C277.282 251.751 264.971 276.014 262.273 302.52L168.987 270.985L68.7968 301.805V301.805ZM148.411 516.585C124.794 491.166 105.948 462.155 92.3656 430.298C76.5795 393.263 68.575 353.981 68.575 313.541C68.575 311.543 68.5913 309.653 68.6247 307.816L168.903 276.968L261.833 308.383C261.749 310.101 261.707 311.821 261.707 313.541C261.707 338.235 270.248 362.177 285.832 381.372L197.247 424.586L148.411 516.585V516.585ZM253.157 589.821C217.16 574.718 184.841 553.11 157.106 525.602C155.575 524.076 154.061 522.534 152.564 520.976L201.453 428.877L289.668 385.844C307.648 405.709 331.857 418.126 358.385 421.117L326.698 513.387L357.883 613.151C321.669 611.64 286.457 603.798 253.157 589.821ZM488.542 589.821C451.198 605.49 411.598 613.435 370.844 613.435C368.737 613.435 366.466 613.406 363.95 613.346L332.729 513.47L364.271 421.625C366.496 421.76 368.698 421.828 370.844 421.828C395.367 421.828 419.235 413.561 438.464 398.479L481.521 485.361L575.347 534.379C549.744 557.741 520.561 576.382 488.542 589.821V589.821ZM672.879 325.591C671.446 361.791 663.532 396.998 649.334 430.299C634.107 466.019 612.323 498.082 584.585 525.603C583.001 527.175 581.398 528.727 579.775 530.259L485.847 481.189L442.996 394.723C463.451 376.834 476.224 352.591 479.285 325.913L571.028 356.923L672.879 325.591V325.591Z" fill="url(#paint0_linear_145_153)"/>
<path d="M291.897 150.125H294.377C296.467 150.125 297.909 151.548 297.909 153.404V153.424C297.909 155.28 296.466 156.722 294.377 156.722H291.897V150.125V150.125ZM293.067 151.181V155.666H294.377C295.773 155.666 296.685 154.734 296.685 153.442V153.423C296.685 152.132 295.773 151.181 294.377 151.181H293.067ZM301.802 150.077H302.885L305.811 156.72H304.575L303.901 155.127H300.758L300.074 156.72H298.877L301.802 150.077V150.077ZM303.473 154.101L302.325 151.463L301.185 154.101H303.473V154.101ZM308.316 151.199H306.207V150.125H311.602V151.199H309.493V156.72H308.316V151.199H308.316ZM314.924 150.077H316.007L318.933 156.72H317.698L317.024 155.127H313.88L313.196 156.72H311.999L314.924 150.077V150.077ZM316.595 154.101L315.447 151.463L314.307 154.101H316.595V154.101ZM294.253 161.383H295.337L298.262 168.026H297.027L296.353 166.433H293.209L292.526 168.026H291.329L294.253 161.383V161.383ZM295.925 165.406L294.776 162.768L293.637 165.406H295.925V165.406ZM299.987 161.43H302.951C303.787 161.43 304.442 161.674 304.87 162.089C305.221 162.446 305.42 162.937 305.42 163.512V163.531C305.42 164.615 304.765 165.265 303.844 165.527L305.639 168.025H304.253L302.619 165.726H301.157V168.025H299.988V161.43H299.987ZM302.866 164.699C303.701 164.699 304.233 164.266 304.233 163.597V163.578C304.233 162.871 303.721 162.485 302.856 162.485H301.157V164.699H302.866ZM307.146 164.746V164.727C307.146 162.851 308.561 161.316 310.575 161.316C311.8 161.316 312.542 161.739 313.177 162.342L312.428 163.2C311.895 162.709 311.326 162.38 310.566 162.38C309.303 162.38 308.372 163.417 308.372 164.707V164.727C308.372 166.017 309.294 167.063 310.566 167.063C311.383 167.063 311.905 166.743 312.476 166.215L313.225 166.969C312.532 167.685 311.772 168.137 310.528 168.137C308.59 168.139 307.146 166.641 307.146 164.746V164.746ZM315.037 161.43H316.206V164.172H319.378V161.43H320.546V168.025H319.378V165.245H316.206V168.025H315.037V161.43ZM322.908 161.43H324.077V168.025H322.908V161.43ZM328.075 162.503H325.967V161.43H331.362V162.503H329.253V168.025H328.076V162.503H328.075ZM333.183 161.43H338.112V162.466H334.351V164.181H337.684V165.218H334.351V166.989H338.159V168.026H333.182V161.43H333.183ZM339.839 164.746V164.727C339.839 162.851 341.254 161.316 343.268 161.316C344.492 161.316 345.234 161.739 345.87 162.342L345.121 163.2C344.588 162.709 344.019 162.38 343.259 162.38C341.996 162.38 341.065 163.417 341.065 164.707V164.727C341.065 166.017 341.986 167.063 343.259 167.063C344.076 167.063 344.598 166.743 345.168 166.215L345.918 166.969C345.225 167.685 344.465 168.137 343.221 168.137C341.282 168.139 339.839 166.641 339.839 164.746V164.746ZM349.363 162.503H347.255V161.43H352.65V162.503H350.541V168.025H349.364V162.503H349.363ZM354.367 165.227V161.43H355.535V165.179C355.535 166.404 356.171 167.055 357.216 167.055C358.252 167.055 358.887 166.442 358.887 165.227V161.43H360.057V165.17C360.057 167.139 358.935 168.128 357.198 168.128C355.468 168.129 354.367 167.14 354.367 165.227V165.227ZM362.247 161.43H365.211C366.047 161.43 366.703 161.674 367.13 162.089C367.481 162.446 367.681 162.937 367.681 163.512V163.531C367.681 164.615 367.025 165.265 366.104 165.527L367.9 168.025H366.513L364.879 165.726H363.417V168.025H362.248V161.43H362.247ZM365.126 164.699C365.962 164.699 366.493 164.266 366.493 163.597V163.578C366.493 162.871 365.981 162.485 365.116 162.485H363.417V164.699H365.126ZM369.7 161.43H374.63V162.466H370.868V164.181H374.201V165.218H370.868V166.989H374.676V168.026H369.699V161.43H369.7Z" fill="#333333"/>
<path d="M503.031 275.055H504.276L506.299 278.174L508.322 275.055H509.566V281.651H508.398V276.921L506.299 280.029H506.261L504.181 276.939V281.651H503.031V275.055ZM514.218 275.009H515.301L518.227 281.651H516.991L516.317 280.059H513.174L512.49 281.651H511.293L514.218 275.009V275.009ZM515.889 279.032L514.741 276.394L513.601 279.032H515.889ZM519.391 280.69L520.094 279.861C520.731 280.407 521.376 280.718 522.193 280.718C522.915 280.718 523.37 280.379 523.37 279.889V279.87C523.37 279.399 523.105 279.143 521.869 278.862C520.455 278.523 519.657 278.108 519.657 276.893V276.874C519.657 275.743 520.606 274.96 521.927 274.96C522.896 274.96 523.665 275.253 524.339 275.789L523.713 276.666C523.114 276.223 522.516 275.988 521.908 275.988C521.224 275.988 520.825 276.336 520.825 276.769V276.788C520.825 277.298 521.129 277.523 522.411 277.825C523.816 278.164 524.539 278.664 524.539 279.756V279.776C524.539 281.01 523.561 281.745 522.165 281.745C521.14 281.75 520.15 281.373 519.391 280.69V280.69ZM527.995 276.129H525.887V275.055H531.282V276.129H529.173V281.651H527.996V276.129H527.995ZM533.103 275.055H538.032V276.092H534.271V277.807H537.604V278.844H534.271V280.615H538.079V281.651H533.102V275.055H533.103ZM540.053 275.055H543.016C543.852 275.055 544.508 275.3 544.935 275.714C545.286 276.072 545.486 276.562 545.486 277.137V277.156C545.486 278.24 544.83 278.89 543.909 279.153L545.705 281.651H544.319L542.685 279.351H541.223V281.651H540.054V275.055H540.053ZM542.931 278.325C543.767 278.325 544.299 277.891 544.299 277.223V277.204C544.299 276.497 543.786 276.111 542.922 276.111H541.223V278.325H542.931V278.325ZM550.943 275.055H553.423C555.513 275.055 556.955 276.478 556.955 278.333V278.353C556.955 280.21 555.512 281.651 553.423 281.651H550.943V275.055ZM552.113 276.111V280.597H553.423C554.819 280.597 555.731 279.664 555.731 278.372V278.353C555.731 277.062 554.819 276.111 553.423 276.111H552.113ZM560.848 275.009H561.931L564.857 281.651H563.621L562.947 280.059H559.804L559.12 281.651H557.923L560.848 275.009V275.009ZM562.519 279.032L561.371 276.394L560.231 279.032H562.519ZM567.363 276.129H565.254V275.055H570.649V276.129H568.54V281.651H567.363V276.129H567.363ZM573.971 275.009H575.054L577.98 281.651H576.745L576.071 280.059H572.927L572.243 281.651H571.046L573.971 275.009V275.009ZM575.642 279.032L574.494 276.394L573.354 279.032H575.642ZM579.173 282.536C579.752 282.424 580.028 282.131 579.99 281.651H579.495V280.35H580.758V281.452C580.758 282.498 580.255 282.941 579.296 283.026L579.173 282.536V282.536ZM503.031 286.36H505.995C506.831 286.36 507.487 286.605 507.914 287.019C508.265 287.377 508.465 287.867 508.465 288.442V288.461C508.465 289.545 507.809 290.195 506.888 290.458L508.684 292.955H507.298L505.664 290.656H504.202V292.955H503.032V286.36H503.031ZM505.909 289.63C506.745 289.63 507.277 289.196 507.277 288.527V288.508C507.277 287.802 506.764 287.416 505.9 287.416H504.201V289.63H505.909V289.63ZM510.484 286.36H515.414V287.397H511.653V289.112H514.986V290.149H511.653V291.919H515.461V292.956H510.483V286.36H510.484ZM517.435 286.36H522.384V287.415H518.604V289.214H521.956V290.269H518.604V292.954H517.435V286.36V286.36ZM524.253 286.36H529.183V287.397H525.421V289.112H528.754V290.149H525.421V291.919H529.23V292.956H524.252V286.36H524.253ZM531.203 286.36H534.167C535.002 286.36 535.658 286.605 536.086 287.019C536.437 287.377 536.636 287.867 536.636 288.442V288.461C536.636 289.545 535.981 290.195 535.06 290.458L536.855 292.955H535.469L533.835 290.656H532.373V292.955H531.204V286.36H531.203ZM534.082 289.63C534.917 289.63 535.449 289.196 535.449 288.527V288.508C535.449 287.802 534.936 287.416 534.072 287.416H532.373V289.63H534.082V289.63ZM538.657 286.36H543.586V287.397H539.825V289.112H543.158V290.149H539.825V291.919H543.633V292.956H538.656V286.36H538.657ZM545.607 286.36H546.691L550.253 290.921V286.36H551.401V292.955H550.424L546.758 288.263V292.955H545.608V286.36H545.607ZM553.403 289.677V289.658C553.403 287.783 554.819 286.247 556.832 286.247C558.057 286.247 558.799 286.67 559.435 287.273L558.685 288.131C558.152 287.641 557.584 287.311 556.823 287.311C555.56 287.311 554.629 288.348 554.629 289.638V289.658C554.629 290.948 555.551 291.994 556.823 291.994C557.64 291.994 558.162 291.675 558.733 291.146L559.482 291.901C558.789 292.617 558.029 293.068 556.785 293.068C554.847 293.069 553.403 291.571 553.403 289.677V289.677ZM561.293 286.36H566.223V287.397H562.462V289.112H565.795V290.149H562.462V291.919H566.27V292.956H561.292V286.36H561.293ZM571.681 286.36H574.16C576.25 286.36 577.693 287.783 577.693 289.638V289.658C577.693 291.514 576.249 292.956 574.16 292.956H571.681V286.36ZM572.851 287.416V291.901H574.16C575.557 291.901 576.468 290.969 576.468 289.677V289.658C576.468 288.367 575.557 287.416 574.16 287.416H572.851ZM581.585 286.314H582.669L585.594 292.956H584.359L583.685 291.364H580.541L579.858 292.956H578.661L581.585 286.314V286.314ZM583.257 290.336L582.108 287.698L580.969 290.336H583.257ZM588.099 287.434H585.991V286.36H591.385V287.434H589.277V292.955H588.1V287.434H588.099ZM594.708 286.314H595.791L598.717 292.956H597.482L596.807 291.364H593.664L592.98 292.956H591.783L594.708 286.314V286.314ZM596.379 290.336L595.231 287.698L594.091 290.336H596.379ZM599.911 293.841C600.489 293.728 600.766 293.436 600.727 292.955H600.233V291.655H601.496V292.757C601.496 293.803 600.992 294.246 600.033 294.331L599.911 293.841V293.841ZM609.378 286.314H610.462L613.387 292.956H612.152L611.478 291.364H608.334L607.651 292.956H606.454L609.378 286.314V286.314ZM611.05 290.336L609.901 287.698L608.762 290.336H611.05ZM615.112 286.36H616.195L619.758 290.921V286.36H620.906V292.955H619.929L616.262 288.263V292.955H615.113V286.36H615.112ZM623.202 286.36H625.681C627.771 286.36 629.213 287.783 629.213 289.638V289.658C629.213 291.514 627.77 292.956 625.681 292.956H623.202V286.36ZM624.371 287.416V291.901H625.681C627.078 291.901 627.989 290.969 627.989 289.677V289.658C627.989 288.367 627.078 287.416 625.681 287.416H624.371ZM503.031 297.664H504.276L506.299 300.783L508.322 297.664H509.566V304.259H508.398V299.53L506.299 302.638H506.261L504.181 299.548V304.259H503.031V297.664ZM511.862 297.664H516.792V298.701H513.03V300.416H516.363V301.452H513.03V303.223H516.839V304.26H511.861V297.664H511.862ZM520.446 298.738H518.338V297.664H523.732V298.738H521.624V304.259H520.446V298.738ZM527.054 297.617H528.138L531.063 304.26H529.828L529.154 302.667H526.01L525.327 304.26H524.13L527.054 297.617V297.617ZM528.727 301.64L527.578 299.002L526.439 301.64H528.727ZM532.789 297.664H535.268C537.358 297.664 538.801 299.087 538.801 300.943V300.962C538.801 302.818 537.357 304.26 535.268 304.26H532.789V297.664V297.664ZM533.957 298.72V303.205H535.267C536.664 303.205 537.575 302.273 537.575 300.981V300.962C537.575 299.671 536.664 298.72 535.267 298.72H533.957ZM542.693 297.617H543.777L546.702 304.26H545.467L544.793 302.667H541.649L540.966 304.26H539.769L542.693 297.617V297.617ZM544.365 301.64L543.216 299.002L542.077 301.64H544.365ZM549.206 298.738H547.098V297.664H552.493V298.738H550.384V304.259H549.207V298.738H549.206ZM555.817 297.617H556.9L559.826 304.26H558.59L557.916 302.667H554.773L554.089 304.26H552.892L555.817 297.617V297.617ZM557.488 301.64L556.34 299.002L555.2 301.64H557.488ZM564.987 297.664H566.232L568.255 300.783L570.277 297.664H571.522V304.259H570.354V299.53L568.256 302.638H568.217L566.137 299.548V304.259H564.988V297.664H564.987ZM576.174 297.617H577.257L580.183 304.26H578.948L578.274 302.667H575.13L574.446 304.26H573.249L576.174 297.617V297.617ZM577.845 301.64L576.697 299.002L575.557 301.64H577.845ZM581.908 297.664H582.991L586.553 302.225V297.664H587.702V304.259H586.724L583.058 299.567V304.259H581.909V297.664H581.908ZM592.353 297.617H593.436L596.362 304.26H595.127L594.453 302.667H591.309L590.625 304.26H589.428L592.353 297.617V297.617ZM594.024 301.64L592.876 299.002L591.736 301.64H594.024ZM597.375 300.981V300.962C597.375 299.115 598.8 297.551 600.804 297.551C601.963 297.551 602.675 297.871 603.359 298.445L602.619 299.322C602.106 298.888 601.603 298.615 600.757 298.615C599.532 298.615 598.601 299.68 598.601 300.943V300.962C598.601 302.319 599.504 303.317 600.861 303.317C601.489 303.317 602.058 303.119 602.467 302.818V301.583H600.768V300.576H603.598V303.346C602.828 304.007 601.844 304.372 600.825 304.373C598.744 304.373 597.375 302.903 597.375 300.981V300.981ZM605.702 297.664H610.632V298.701H606.87V300.416H610.203V301.452H606.87V303.223H610.679V304.26H605.701V297.664H605.702ZM612.654 297.664H613.899L615.922 300.783L617.944 297.664H619.189V304.259H618.02V299.53L615.922 302.638H615.884L613.803 299.548V304.259H612.654V297.664ZM621.483 297.664H626.413V298.701H622.653V300.416H625.986V301.452H622.653V303.223H626.461V304.26H621.483V297.664V297.664ZM628.434 297.664H629.517L633.08 302.225V297.664H634.228V304.259H633.251L629.584 299.567V304.259H628.435V297.664H628.434ZM638.159 298.738H636.05V297.664H641.445V298.738H639.337V304.259H638.16V298.738H638.159Z" fill="#333333"/>
<path d="M483.303 389.991H485.783C487.873 389.991 489.315 391.414 489.315 393.269V393.289C489.315 395.145 487.872 396.587 485.783 396.587H483.303V389.991ZM484.472 391.047V395.532H485.782C487.178 395.532 488.09 394.6 488.09 393.308V393.289C488.09 391.998 487.178 391.047 485.782 391.047H484.472ZM493.208 389.944H494.291L497.217 396.587H495.981L495.307 394.994H492.164L491.48 396.587H490.283L493.208 389.944V389.944ZM494.879 393.967L493.731 391.329L492.591 393.967H494.879ZM499.721 391.065H497.613V389.991H503.008V391.065H500.899V396.586H499.722V391.065H499.721ZM506.33 389.944H507.413L510.339 396.587H509.104L508.43 394.994H505.286L504.602 396.587H503.405L506.33 389.944V389.944ZM508.001 393.967L506.853 391.329L505.713 393.967H508.001ZM515.502 389.991H518.123C519.681 389.991 520.65 390.867 520.65 392.195V392.214C520.65 393.694 519.453 394.466 517.992 394.466H516.671V396.586H515.502V389.991V389.991ZM518.028 393.421C518.911 393.421 519.462 392.93 519.462 392.244V392.224C519.462 391.452 518.902 391.047 518.028 391.047H516.67V393.421H518.028ZM522.434 389.991H525.397C526.233 389.991 526.889 390.236 527.316 390.65C527.667 391.008 527.867 391.498 527.867 392.073V392.092C527.867 393.176 527.211 393.826 526.29 394.089L528.086 396.586H526.7L525.066 394.287H523.604V396.586H522.435V389.991H522.434ZM525.311 393.26C526.147 393.26 526.679 392.827 526.679 392.158V392.139C526.679 391.433 526.166 391.047 525.302 391.047H523.603V393.26H525.311V393.26ZM529.886 389.991H534.816V391.028H531.055V392.743H534.388V393.779H531.055V395.55H534.863V396.587H529.885V389.991H529.886ZM536.837 389.991H539.459C541.016 389.991 541.986 390.867 541.986 392.195V392.214C541.986 393.694 540.789 394.466 539.326 394.466H538.007V396.586H536.837V389.991V389.991ZM539.364 393.421C540.248 393.421 540.798 392.93 540.798 392.244V392.224C540.798 391.452 540.238 391.047 539.364 391.047H538.007V393.421H539.364ZM545.459 389.944H546.543L549.468 396.587H548.233L547.559 394.994H544.415L543.732 396.587H542.535L545.459 389.944V389.944ZM547.131 393.967L545.983 391.329L544.844 393.967H547.131ZM551.194 389.991H554.158C554.993 389.991 555.649 390.236 556.077 390.65C556.428 391.008 556.627 391.498 556.627 392.073V392.092C556.627 393.176 555.972 393.826 555.051 394.089L556.846 396.586H555.46L553.826 394.287H552.364V396.586H551.195V389.991H551.194ZM554.072 393.26C554.907 393.26 555.439 392.827 555.439 392.158V392.139C555.439 391.433 554.927 391.047 554.062 391.047H552.363V393.26H554.072V393.26ZM561.003 389.944H562.086L565.011 396.587H563.776L563.102 394.994H559.958L559.275 396.587H558.078L561.003 389.944V389.944ZM562.674 393.967L561.526 391.329L560.386 393.967H562.674ZM567.517 391.065H565.409V389.991H570.804V391.065H568.695V396.586H567.518V391.065H567.517ZM572.692 389.991H573.86V396.586H572.692V389.991ZM575.929 393.307V393.288C575.929 391.432 577.373 389.877 579.415 389.877C581.457 389.877 582.882 391.413 582.882 393.268V393.288C582.882 395.144 581.438 396.699 579.396 396.699C577.354 396.699 575.929 395.164 575.929 393.307ZM581.656 393.307V393.288C581.656 392.006 580.716 390.941 579.396 390.941C578.076 390.941 577.154 391.987 577.154 393.268V393.288C577.154 394.569 578.094 395.624 579.414 395.624C580.734 395.624 581.656 394.589 581.656 393.307V393.307ZM584.883 389.991H585.966L589.529 394.551V389.991H590.677V396.586H589.7L586.033 391.894V396.586H584.884V389.991H584.883ZM485.659 401.249H486.742L489.668 407.892H488.433L487.759 406.299H484.615L483.932 407.892H482.734L485.659 401.249V401.249ZM487.33 405.272L486.182 402.634L485.042 405.272H487.33ZM491.393 401.296H492.476L496.039 405.856V401.296H497.187V407.891H496.21L492.543 403.198V407.891H491.394V401.296H491.393ZM499.483 401.296H501.963C504.053 401.296 505.495 402.718 505.495 404.574V404.594C505.495 406.45 504.052 407.892 501.963 407.892H499.483V401.296ZM500.652 402.351V406.837H501.962C503.358 406.837 504.27 405.905 504.27 404.613V404.594C504.27 403.303 503.358 402.351 501.962 402.351H500.652ZM516.927 408.089L516.129 407.382C515.536 407.791 514.829 408.008 514.107 408.004C512.065 408.004 510.64 406.468 510.64 404.612V404.593C510.64 402.736 512.084 401.182 514.126 401.182C516.168 401.182 517.593 402.717 517.593 404.573V404.593C517.591 405.322 517.355 406.032 516.919 406.619L517.678 407.259L516.927 408.089V408.089ZM515.274 406.628L514.125 405.658L514.876 404.81L516.044 405.865C516.253 405.507 516.367 405.083 516.367 404.612V404.593C516.367 403.31 515.427 402.246 514.107 402.246C512.787 402.246 511.865 403.292 511.865 404.573V404.593C511.865 405.874 512.805 406.929 514.125 406.929C514.528 406.933 514.926 406.83 515.274 406.628V406.628ZM519.49 405.093V401.296H520.658V405.045C520.658 406.27 521.294 406.92 522.339 406.92C523.374 406.92 524.01 406.308 524.01 405.093V401.296H525.18V405.036C525.18 407.005 524.058 407.994 522.321 407.994C520.592 407.995 519.49 407.006 519.49 405.093V405.093ZM529.488 401.249H530.571L533.497 407.892H532.261L531.587 406.299H528.444L527.76 407.892H526.563L529.488 401.249V401.249ZM531.159 405.272L530.011 402.634L528.871 405.272H531.159ZM535.222 401.296H536.392V406.836H539.886V407.891H535.222V401.296V401.296ZM541.755 401.296H542.924V407.891H541.755V401.296ZM546.921 402.369H544.813V401.296H550.207V402.369H548.099V407.891H546.922V402.369H546.921ZM553.986 405.291L551.345 401.296H552.731L554.584 404.207L556.465 401.296H557.803L555.163 405.262V407.891H553.986V405.291V405.291Z" fill="#333333"/>
<path d="M382.563 456.204H385.042C387.132 456.204 388.575 457.627 388.575 459.482V459.502C388.575 461.359 387.131 462.8 385.042 462.8H382.563V456.204ZM383.732 457.259V461.745H385.041C386.438 461.745 387.349 460.812 387.349 459.52V459.501C387.349 458.21 386.438 457.259 385.041 457.259H383.732ZM392.467 456.157H393.551L396.476 462.799H395.241L394.567 461.207H391.423L390.74 462.799H389.543L392.467 456.157V456.157ZM394.139 460.18L392.99 457.542L391.851 460.18H394.139V460.18ZM398.98 457.278H396.872V456.204H402.266V457.278H400.158V462.799H398.981V457.278H398.98ZM405.59 456.157H406.673L409.599 462.799H408.363L407.689 461.207H404.546L403.862 462.799H402.665L405.59 456.157V456.157ZM407.261 460.18L406.113 457.542L404.973 460.18H407.261V460.18ZM382.63 467.509H383.798V474.104H382.63V467.509ZM386.161 467.509H387.244L390.807 472.07V467.509H391.955V474.104H390.978L387.311 469.412V474.104H386.162V467.509H386.161ZM395.885 468.583H393.777V467.509H399.173V468.583H397.063V474.104H395.886V468.583H395.885ZM400.993 467.509H405.923V468.546H402.161V470.261H405.494V471.297H402.161V473.068H405.969V474.105H400.992V467.509H400.993ZM407.649 470.825V470.806C407.649 468.959 409.074 467.395 411.078 467.395C412.237 467.395 412.949 467.715 413.633 468.29L412.893 469.166C412.38 468.733 411.877 468.459 411.031 468.459C409.806 468.459 408.875 469.524 408.875 470.786V470.806C408.875 472.163 409.778 473.161 411.135 473.161C411.762 473.161 412.332 472.963 412.74 472.662V471.428H411.041V470.421H413.872V473.191C413.102 473.852 412.117 474.217 411.099 474.218C409.017 474.217 407.649 472.748 407.649 470.825V470.825ZM415.976 467.509H418.94C419.775 467.509 420.431 467.754 420.859 468.168C421.21 468.526 421.409 469.016 421.409 469.591V469.61C421.409 470.694 420.754 471.344 419.833 471.607L421.628 474.104H420.242L418.608 471.805H417.146V474.104H415.977V467.509H415.976ZM418.855 470.778C419.69 470.778 420.222 470.344 420.222 469.675V469.656C420.222 468.95 419.71 468.564 418.845 468.564H417.146V470.778H418.855V470.778ZM425.786 467.462H426.87L429.795 474.104H428.56L427.886 472.512H424.742L424.059 474.104H422.862L425.786 467.462V467.462ZM427.458 471.484L426.309 468.846L425.17 471.484H427.458V471.484ZM432.299 468.583H430.191V467.509H435.586V468.583H433.477V474.104H432.3V468.583H432.299ZM437.474 467.509H438.642V474.104H437.474V467.509ZM440.711 470.825V470.806C440.711 468.95 442.155 467.395 444.197 467.395C446.239 467.395 447.664 468.931 447.664 470.786V470.806C447.664 472.662 446.22 474.217 444.178 474.217C442.136 474.217 440.711 472.681 440.711 470.825ZM446.438 470.825V470.806C446.438 469.524 445.498 468.459 444.178 468.459C442.858 468.459 441.936 469.506 441.936 470.786V470.806C441.936 472.088 442.876 473.142 444.196 473.142C445.516 473.142 446.438 472.108 446.438 470.825V470.825ZM449.665 467.509H450.748L454.311 472.07V467.509H455.459V474.104H454.482L450.815 469.412V474.104H449.666V467.509H449.665Z" fill="#333333"/>
<path d="M244.046 433.717H246.525C248.615 433.717 250.058 435.14 250.058 436.995V437.015C250.058 438.871 248.614 440.313 246.525 440.313H244.046V433.717ZM245.215 434.772V439.257H246.525C247.922 439.257 248.833 438.325 248.833 437.033V437.014C248.833 435.723 247.922 434.772 246.525 434.772H245.215ZM253.95 433.67H255.033L257.959 440.312H256.724L256.05 438.72H252.906L252.222 440.312H251.025L253.95 433.67V433.67ZM255.622 437.692L254.474 435.054L253.334 437.692H255.622V437.692ZM260.464 434.791H258.356V433.717H263.75V434.791H261.642V440.312H260.465V434.791H260.464ZM267.072 433.67H268.156L271.081 440.312H269.846L269.172 438.72H266.028L265.345 440.312H264.148L267.072 433.67V433.67ZM268.744 437.692L267.595 435.054L266.456 437.692H268.744V437.692ZM243.533 445.022H244.796L246.382 449.912L248.015 445.002H249.003L250.637 449.912L252.222 445.022H253.448L251.14 451.664H250.124L248.491 446.925L246.857 451.664H245.85L243.533 445.022V445.022ZM256.733 444.974H257.816L260.742 451.617H259.507L258.833 450.024H255.689L255.005 451.617H253.808L256.733 444.974V444.974ZM258.404 448.997L257.256 446.359L256.116 448.997H258.404V448.997ZM262.467 445.022H265.431C266.266 445.022 266.922 445.266 267.35 445.681C267.701 446.039 267.9 446.529 267.9 447.104V447.123C267.9 448.207 267.244 448.857 266.324 449.12L268.119 451.617H266.733L265.099 449.318H263.637V451.617H262.468V445.022H262.467ZM265.345 448.29C266.18 448.29 266.712 447.857 266.712 447.188V447.169C266.712 446.463 266.199 446.077 265.335 446.077H263.636V448.29H265.345V448.29ZM269.921 445.022H274.85V446.059H271.089V447.774H274.422V448.81H271.089V450.581H274.897V451.618H269.92V445.022H269.921ZM276.87 445.022H278.04V447.764H281.211V445.022H282.379V451.617H281.211V448.837H278.04V451.617H276.87V445.022ZM284.383 448.338V448.319C284.383 446.463 285.826 444.908 287.868 444.908C289.911 444.908 291.335 446.444 291.335 448.299V448.319C291.335 450.175 289.892 451.73 287.849 451.73C285.807 451.73 284.383 450.194 284.383 448.338ZM290.11 448.338V448.319C290.11 447.036 289.17 445.972 287.849 445.972C286.529 445.972 285.607 447.018 285.607 448.299V448.319C285.607 449.6 286.547 450.655 287.867 450.655C289.188 450.655 290.11 449.62 290.11 448.338V448.338ZM293.231 448.819V445.022H294.4V448.771C294.4 449.996 295.035 450.647 296.08 450.647C297.116 450.647 297.752 450.034 297.752 448.819V445.022H298.921V448.762C298.921 450.731 297.799 451.72 296.062 451.72C294.334 451.721 293.231 450.732 293.231 448.819V448.819ZM300.666 450.655L301.369 449.826C302.005 450.373 302.651 450.684 303.467 450.684C304.189 450.684 304.644 450.345 304.644 449.855V449.836C304.644 449.364 304.379 449.109 303.144 448.827C301.73 448.489 300.932 448.073 300.932 446.858V446.839C300.932 445.709 301.881 444.926 303.201 444.926C304.171 444.926 304.94 445.218 305.614 445.755L304.987 446.631C304.389 446.189 303.79 445.953 303.182 445.953C302.499 445.953 302.099 446.301 302.099 446.735V446.754C302.099 447.263 302.403 447.489 303.685 447.791C305.091 448.129 305.813 448.63 305.813 449.722V449.742C305.813 450.976 304.835 451.711 303.439 451.711C302.414 451.717 301.424 451.34 300.666 450.655V450.655ZM307.845 445.022H309.013V451.617H307.845V445.022ZM311.376 445.022H312.459L316.022 449.582V445.022H317.17V451.617H316.193L312.526 446.925V451.617H311.377V445.022H311.376ZM319.171 448.338V448.319C319.171 446.472 320.596 444.908 322.6 444.908C323.758 444.908 324.471 445.228 325.154 445.802L324.414 446.679C323.902 446.245 323.399 445.972 322.553 445.972C321.328 445.972 320.397 447.036 320.397 448.299V448.319C320.397 449.676 321.299 450.674 322.657 450.674C323.284 450.674 323.854 450.476 324.262 450.175V448.94H322.563V447.933H325.393V450.703C324.623 451.364 323.639 451.729 322.621 451.73C320.539 451.73 319.171 450.26 319.171 448.338V448.338Z" fill="#333333"/>
<path d="M335.32 296.802H341.063C345.903 296.802 349.247 300.098 349.247 304.398V304.441C349.247 308.741 345.903 312.081 341.063 312.081H335.32V296.802V296.802ZM338.027 299.246V309.635H341.063C344.296 309.635 346.408 307.475 346.408 304.484V304.44C346.408 301.45 344.296 299.245 341.063 299.245H338.027V299.246ZM358.264 296.693H360.772L367.548 312.081H364.688L363.126 308.392H355.843L354.26 312.081H351.488L358.264 296.693V296.693ZM362.135 306.013L359.473 299.901L356.834 306.013H362.135ZM373.352 299.29H368.468V296.802H380.965V299.29H376.081V312.08H373.352V299.29ZM388.661 296.693H391.169L397.946 312.081H395.085L393.523 308.392H386.241L384.658 312.081H381.886L388.661 296.693ZM392.533 306.013L389.872 299.901L387.232 306.013H392.533ZM277.967 322.989H280.85L285.536 330.213L290.221 322.989H293.103V338.267H290.397V327.311L285.536 334.513H285.448L280.629 327.354V338.267H277.967V322.989V322.989ZM303.879 322.879H306.388L313.164 338.267H310.304L308.742 334.579H301.46L299.876 338.267H297.104L303.879 322.879V322.879ZM307.751 332.201L305.09 326.089L302.45 332.201H307.751ZM317.163 322.989H319.671L327.921 333.553V322.989H330.583V338.267H328.317L319.825 327.398V338.267H317.163V322.989ZM341.359 322.879H343.868L350.644 338.267H347.784L346.222 334.579H338.94L337.356 338.267H334.584L341.359 322.879V322.879ZM345.231 332.201L342.57 326.089L339.93 332.201H345.231ZM352.994 330.671V330.628C352.994 326.35 356.294 322.727 360.936 322.727C363.62 322.727 365.27 323.469 366.854 324.801L365.137 326.831C363.95 325.826 362.783 325.194 360.825 325.194C357.988 325.194 355.831 327.661 355.831 330.585V330.629C355.831 333.771 357.921 336.086 361.067 336.086C362.52 336.086 363.839 335.628 364.786 334.929V332.069H360.847V329.733H367.403V336.15C365.886 337.438 363.707 338.53 360.979 338.53C356.162 338.529 352.994 335.125 352.994 330.671V330.671ZM372.285 322.989H383.703V325.39H374.991V329.362H382.712V331.763H374.991V335.867H383.813V338.267H372.285V322.989V322.989ZM388.386 322.989H391.268L395.953 330.213L400.639 322.989H403.522V338.267H400.815V327.311L395.953 334.513H395.866L391.049 327.354V338.267H388.387V322.989H388.386ZM408.843 322.989H420.26V325.39H411.548V329.362H419.27V331.763H411.548V335.867H420.37V338.267H408.843V322.989V322.989ZM424.943 322.989H427.451L435.701 333.553V322.989H438.363V338.267H436.097L427.605 327.398V338.267H424.943V322.989ZM447.466 325.477H442.582V322.989H455.078V325.477H450.195V338.267H447.466V325.477Z" fill="#333333"/>
<path d="M145.825 325.028H148.304C150.394 325.028 151.837 326.45 151.837 328.306V328.326C151.837 330.182 150.393 331.624 148.304 331.624H145.825V325.028ZM146.993 326.082V330.568H148.303C149.7 330.568 150.611 329.636 150.611 328.344V328.325C150.611 327.034 149.7 326.082 148.303 326.082H146.993ZM155.729 324.98H156.812L159.738 331.623H158.503L157.829 330.03H154.685L154.001 331.623H152.804L155.729 324.98V324.98ZM157.4 329.003L156.252 326.365L155.112 329.003H157.4ZM162.243 326.101H160.135V325.028H165.529V326.101H163.421V331.623H162.244V326.101H162.243ZM168.851 324.98H169.935L172.86 331.623H171.625L170.951 330.03H167.807L167.124 331.623H165.927L168.851 324.98V324.98ZM170.523 329.003L169.374 326.365L168.235 329.003H170.523ZM147.459 337.406H145.351V336.332H150.745V337.406H148.637V342.928H147.46V337.406H147.459ZM152.565 336.332H155.529C156.365 336.332 157.021 336.577 157.448 336.992C157.799 337.349 157.999 337.84 157.999 338.414V338.433C157.999 339.518 157.343 340.167 156.422 340.43L158.218 342.928H156.831L155.197 340.628H153.736V342.928H152.566V336.332H152.565ZM155.444 339.601C156.28 339.601 156.811 339.168 156.811 338.499V338.48C156.811 337.773 156.299 337.387 155.435 337.387H153.736V339.601H155.444V339.601ZM162.375 336.285H163.458L166.384 342.928H165.148L164.474 341.335H161.331L160.647 342.928H159.45L162.375 336.285V336.285ZM164.046 340.308L162.898 337.67L161.758 340.308H164.046ZM168.11 336.332H169.193L172.755 340.893V336.332H173.903V342.928H172.926L169.26 338.235V342.928H168.11V336.332H168.11ZM175.753 341.967L176.455 341.138C177.092 341.684 177.737 341.995 178.554 341.995C179.276 341.995 179.731 341.657 179.731 341.166V341.147C179.731 340.676 179.466 340.421 178.231 340.139C176.817 339.8 176.018 339.385 176.018 338.17V338.151C176.018 337.02 176.968 336.238 178.288 336.238C179.258 336.238 180.026 336.53 180.7 337.067L180.074 337.943C179.476 337.5 178.877 337.265 178.269 337.265C177.585 337.265 177.186 337.613 177.186 338.046V338.065C177.186 338.575 177.49 338.801 178.772 339.102C180.177 339.441 180.9 339.942 180.9 341.033V341.053C180.9 342.287 179.922 343.022 178.526 343.022C177.501 343.027 176.511 342.65 175.753 341.967V341.967ZM182.865 336.332H187.814V337.387H184.034V339.187H187.386V340.241H184.034V342.927H182.865V336.332V336.332ZM189.332 339.649V339.63C189.332 337.773 190.776 336.219 192.818 336.219C194.86 336.219 196.285 337.754 196.285 339.61V339.63C196.285 341.486 194.841 343.041 192.799 343.041C190.757 343.041 189.332 341.505 189.332 339.649ZM195.059 339.649V339.63C195.059 338.347 194.119 337.283 192.799 337.283C191.478 337.283 190.557 338.329 190.557 339.61V339.63C190.557 340.911 191.497 341.966 192.817 341.966C194.137 341.966 195.059 340.931 195.059 339.649V339.649ZM198.286 336.332H201.25C202.085 336.332 202.741 336.577 203.169 336.992C203.52 337.349 203.719 337.84 203.719 338.414V338.433C203.719 339.518 203.064 340.167 202.143 340.43L203.938 342.928H202.552L200.918 340.628H199.456V342.928H198.287V336.332H198.286ZM201.165 339.601C202 339.601 202.532 339.168 202.532 338.499V338.48C202.532 337.773 202.019 337.387 201.155 337.387H199.456V339.601H201.165V339.601ZM205.74 336.332H206.984L209.008 339.451L211.03 336.332H212.275V342.928H211.106V338.198L209.008 341.307H208.969L206.889 338.216V342.928H205.74V336.332V336.332ZM216.925 336.285H218.008L220.934 342.928H219.699L219.025 341.335H215.881L215.197 342.928H214L216.925 336.285V336.285ZM218.596 340.308L217.448 337.67L216.308 340.308H218.596ZM223.439 337.406H221.331V336.332H226.726V337.406H224.617V342.928H223.44V337.406H223.439ZM228.613 336.332H229.782V342.928H228.613V336.332ZM231.851 339.649V339.63C231.851 337.773 233.294 336.219 235.337 336.219C237.379 336.219 238.803 337.754 238.803 339.61V339.63C238.803 341.486 237.36 343.041 235.317 343.041C233.275 343.041 231.851 341.505 231.851 339.649ZM237.578 339.649V339.63C237.578 338.347 236.638 337.283 235.317 337.283C233.997 337.283 233.075 338.329 233.075 339.61V339.63C233.075 340.911 234.015 341.966 235.336 341.966C236.656 341.966 237.578 340.931 237.578 339.649V339.649ZM240.805 336.332H241.888L245.45 340.893V336.332H246.598V342.928H245.621L241.955 338.235V342.928H240.805V336.332H240.805ZM248.448 341.967L249.151 341.138C249.788 341.684 250.433 341.995 251.25 341.995C251.972 341.995 252.427 341.657 252.427 341.166V341.147C252.427 340.676 252.162 340.421 250.927 340.139C249.513 339.8 248.714 339.385 248.714 338.17V338.151C248.714 337.02 249.664 336.238 250.984 336.238C251.954 336.238 252.722 336.53 253.396 337.067L252.77 337.943C252.172 337.5 251.573 337.265 250.965 337.265C250.281 337.265 249.882 337.613 249.882 338.046V338.065C249.882 338.575 250.186 338.801 251.468 339.102C252.873 339.441 253.596 339.942 253.596 341.033V341.053C253.596 342.287 252.618 343.022 251.222 343.022C250.197 343.027 249.207 342.651 248.448 341.967V341.967Z" fill="#333333"/>
<path d="M187.799 230.497H190.279C192.369 230.497 193.811 231.92 193.811 233.775V233.795C193.811 235.652 192.368 237.093 190.279 237.093H187.799V230.497ZM188.969 231.552V236.038H190.279C191.675 236.038 192.587 235.105 192.587 233.813V233.794C192.587 232.503 191.675 231.552 190.279 231.552H188.969ZM197.704 230.45H198.787L201.713 237.092H200.477L199.803 235.5H196.66L195.976 237.092H194.779L197.704 230.45V230.45ZM199.375 234.473L198.227 231.835L197.087 234.473H199.375ZM204.218 231.571H202.109V230.497H207.504V231.571H205.395V237.092H204.218V231.571H204.218ZM210.826 230.45H211.909L214.835 237.092H213.6L212.926 235.5H209.782L209.098 237.092H207.901L210.826 230.45V230.45ZM212.497 234.473L211.349 231.835L210.209 234.473H212.497ZM187.505 245.118V245.099C187.505 243.252 188.93 241.688 190.934 241.688C192.092 241.688 192.805 242.008 193.488 242.583L192.748 243.459C192.236 243.026 191.733 242.752 190.887 242.752C189.662 242.752 188.731 243.817 188.731 245.079V245.099C188.731 246.457 189.633 247.454 190.991 247.454C191.618 247.454 192.188 247.256 192.596 246.955V245.72H190.897V244.713H193.727V247.483C192.957 248.145 191.973 248.509 190.955 248.51C188.873 248.51 187.505 247.04 187.505 245.118V245.118ZM195.538 245.118V245.099C195.538 243.243 196.982 241.688 199.024 241.688C201.066 241.688 202.491 243.224 202.491 245.079V245.099C202.491 246.955 201.047 248.51 199.005 248.51C196.963 248.51 195.538 246.974 195.538 245.118ZM201.265 245.118V245.099C201.265 243.817 200.325 242.752 199.005 242.752C197.685 242.752 196.763 243.799 196.763 245.079V245.099C196.763 246.381 197.703 247.435 199.023 247.435C200.343 247.435 201.265 246.401 201.265 245.118V245.118ZM203.505 241.802H204.798L206.802 246.871L208.796 241.802H210.059L207.305 248.445H206.269L203.505 241.802V241.802ZM211.784 241.802H216.714V242.839H212.952V244.554H216.285V245.59H212.952V247.361H216.761V248.398H211.783V241.802H211.784ZM218.735 241.802H221.699C222.534 241.802 223.19 242.047 223.618 242.461C223.969 242.819 224.168 243.309 224.168 243.884V243.903C224.168 244.987 223.513 245.637 222.592 245.9L224.387 248.397H223.001L221.367 246.098H219.905V248.397H218.736V241.802H218.735ZM221.614 245.071C222.449 245.071 222.981 244.637 222.981 243.968V243.95C222.981 243.243 222.468 242.857 221.604 242.857H219.905V245.071H221.614V245.071ZM226.189 241.802H227.272L230.834 246.363V241.802H231.983V248.397H231.005L227.339 243.705V248.397H226.19V241.802H226.189ZM236.634 241.755H237.717L240.643 248.397H239.408L238.734 246.805H235.59L234.906 248.397H233.709L236.634 241.755V241.755ZM238.305 245.777L237.157 243.139L236.017 245.777H238.305V245.777ZM242.368 241.802H243.451L247.013 246.363V241.802H248.162V248.397H247.185L243.518 243.705V248.397H242.369V241.802H242.368ZM250.165 245.118V245.099C250.165 243.224 251.58 241.688 253.593 241.688C254.818 241.688 255.56 242.111 256.196 242.715L255.446 243.572C254.914 243.082 254.345 242.752 253.585 242.752C252.322 242.752 251.39 243.789 251.39 245.079V245.099C251.39 246.389 252.312 247.435 253.585 247.435C254.401 247.435 254.923 247.116 255.494 246.587L256.244 247.342C255.55 248.058 254.79 248.509 253.546 248.509C251.607 248.51 250.165 247.012 250.165 245.118V245.118ZM258.053 241.802H262.983V242.839H259.222V244.554H262.555V245.59H259.222V247.361H263.03V248.398H258.053V241.802H258.053Z" fill="#333333"/>
<path d="M426.636 180.108H429.116C431.206 180.108 432.648 181.531 432.648 183.387V183.407C432.648 185.263 431.205 186.705 429.116 186.705H426.636V180.108V180.108ZM427.806 181.163V185.649H429.116C430.512 185.649 431.424 184.716 431.424 183.425V183.406C431.424 182.115 430.512 181.163 429.116 181.163H427.806ZM436.542 180.061H437.625L440.551 186.704H439.315L438.641 185.111H435.498L434.814 186.704H433.617L436.542 180.061V180.061ZM438.213 184.084L437.065 181.446L435.925 184.084H438.213V184.084ZM443.055 181.182H440.946V180.108H446.341V181.182H444.232V186.704H443.055V181.182H443.055ZM449.663 180.061H450.746L453.672 186.704H452.437L451.763 185.111H448.619L447.935 186.704H446.738L449.663 180.061V180.061ZM451.334 184.084L450.186 181.446L449.046 184.084H451.334V184.084ZM456.177 181.182H454.069V180.108H459.463V181.182H457.355V186.704H456.178V181.182H456.177ZM461.284 180.108H464.267C465.027 180.108 465.625 180.315 466.005 180.692C466.299 180.985 466.451 181.342 466.451 181.785V181.804C466.451 182.596 465.995 183.02 465.502 183.274C466.28 183.537 466.822 183.98 466.822 184.876V184.895C466.822 186.072 465.844 186.704 464.362 186.704H461.284V180.108ZM465.284 181.974C465.284 181.455 464.865 181.135 464.115 181.135H462.434V182.888H464.029C464.78 182.888 465.284 182.596 465.284 181.993V181.974ZM464.287 183.868H462.434V185.676H464.371C465.169 185.676 465.654 185.366 465.654 184.772V184.753C465.655 184.197 465.207 183.868 464.287 183.868V183.868ZM471.084 180.061H472.168L475.093 186.704H473.858L473.184 185.111H470.04L469.357 186.704H468.16L471.084 180.061V180.061ZM472.757 184.084L471.608 181.446L470.469 184.084H472.757ZM476.259 185.742L476.962 184.913C477.598 185.459 478.244 185.77 479.06 185.77C479.782 185.77 480.237 185.432 480.237 184.941V184.922C480.237 184.451 479.972 184.196 478.737 183.914C477.323 183.575 476.525 183.16 476.525 181.945V181.926C476.525 180.795 477.474 180.013 478.794 180.013C479.764 180.013 480.533 180.305 481.207 180.842L480.58 181.718C479.982 181.275 479.383 181.04 478.775 181.04C478.092 181.04 477.692 181.388 477.692 181.821V181.84C477.692 182.35 477.996 182.576 479.278 182.877C480.684 183.216 481.406 183.717 481.406 184.808V184.828C481.406 186.062 480.428 186.798 479.033 186.798C478.007 186.803 477.017 186.426 476.259 185.742V185.742ZM483.37 180.108H488.3V181.145H484.539V182.86H487.872V183.897H484.539V185.668H488.347V186.705H483.369V180.108H483.37ZM489.875 185.742L490.577 184.913C491.214 185.459 491.859 185.77 492.676 185.77C493.398 185.77 493.853 185.432 493.853 184.941V184.922C493.853 184.451 493.588 184.196 492.353 183.914C490.939 183.575 490.14 183.16 490.14 181.945V181.926C490.14 180.795 491.09 180.013 492.41 180.013C493.38 180.013 494.148 180.305 494.822 180.842L494.196 181.718C493.598 181.275 492.999 181.04 492.391 181.04C491.707 181.04 491.308 181.388 491.308 181.821V181.84C491.308 182.35 491.612 182.576 492.894 182.877C494.299 183.216 495.022 183.717 495.022 184.808V184.828C495.022 186.062 494.044 186.798 492.648 186.798C491.623 186.803 490.633 186.426 489.875 185.742V185.742Z" fill="#333333"/>
<path d="M454.715 140.156C447.355 140.156 439.433 138.634 439.433 135.291C439.433 131.949 447.355 130.427 454.715 130.427C462.075 130.427 469.996 131.95 469.996 135.291C469.996 138.633 462.076 140.156 454.715 140.156V140.156ZM454.715 132.324C445.893 132.324 441.345 134.405 441.345 135.291C441.345 136.178 445.894 138.258 454.715 138.258C463.536 138.258 468.084 136.179 468.084 135.291C468.084 134.404 463.536 132.324 454.715 132.324ZM454.715 147.31C447.355 147.31 439.433 145.789 439.433 142.446H441.345C441.345 143.334 445.894 145.413 454.715 145.413C463.536 145.413 468.084 143.334 468.084 142.446H469.996C469.997 145.789 462.076 147.31 454.715 147.31ZM454.715 154.466C447.355 154.466 439.433 152.945 439.433 149.602H441.345C441.345 150.49 445.894 152.569 454.715 152.569C463.536 152.569 468.084 150.49 468.084 149.602H469.996C469.997 152.944 462.076 154.466 454.715 154.466V154.466ZM454.715 161.62C447.355 161.62 439.433 160.099 439.433 156.756H441.345C441.345 157.644 445.894 159.723 454.715 159.723C463.536 159.723 468.084 157.644 468.084 156.756H469.996C469.997 160.098 462.076 161.62 454.715 161.62Z" fill="#333333"/>
<path d="M439.445 135.364H441.357V157.142H439.445V135.364ZM468.06 135.364H469.973V157.142H468.06V135.364ZM499.009 140.156C491.649 140.156 483.728 138.634 483.728 135.291C483.728 131.949 491.649 130.427 499.009 130.427C506.369 130.427 514.291 131.95 514.291 135.291C514.291 138.633 506.369 140.156 499.009 140.156V140.156ZM499.009 132.324C490.188 132.324 485.64 134.405 485.64 135.291C485.64 136.178 490.189 138.258 499.009 138.258C507.831 138.258 512.379 136.179 512.379 135.291C512.379 134.404 507.83 132.324 499.009 132.324ZM499.009 147.31C491.649 147.31 483.728 145.789 483.728 142.446H485.64C485.64 143.334 490.189 145.413 499.009 145.413C507.831 145.413 512.379 143.334 512.379 142.446H514.291C514.291 145.789 506.369 147.31 499.009 147.31ZM499.009 154.466C491.649 154.466 483.728 152.945 483.728 149.602H485.64C485.64 150.49 490.189 152.569 499.009 152.569C507.831 152.569 512.379 150.49 512.379 149.602H514.291C514.291 152.944 506.369 154.466 499.009 154.466V154.466ZM499.009 161.62C491.649 161.62 483.728 160.099 483.728 156.756H485.64C485.64 157.644 490.189 159.723 499.009 159.723C507.831 159.723 512.379 157.644 512.379 156.756H514.291C514.291 160.098 506.369 161.62 499.009 161.62Z" fill="#333333"/>
<path d="M483.739 135.364H485.652V157.142H483.739V135.364ZM512.355 135.364H514.268V157.142H512.355V135.364ZM476.861 102.627C469.501 102.627 461.58 101.106 461.58 97.7631C461.58 94.4204 469.501 92.8989 476.861 92.8989C484.221 92.8989 492.143 94.4213 492.143 97.7631C492.143 101.105 484.222 102.627 476.861 102.627ZM476.861 94.7951C468.04 94.7951 463.492 96.8752 463.492 97.7621C463.492 98.649 468.041 100.729 476.861 100.729C485.683 100.729 490.231 98.65 490.231 97.7621C490.231 96.8743 485.683 94.7951 476.861 94.7951ZM476.861 109.782C469.501 109.782 461.58 108.261 461.58 104.918H463.492C463.492 105.806 468.041 107.885 476.861 107.885C485.683 107.885 490.231 105.806 490.231 104.918H492.143C492.144 108.26 484.222 109.782 476.861 109.782ZM476.861 116.937C469.501 116.937 461.58 115.416 461.58 112.073H463.492C463.492 112.961 468.041 115.04 476.861 115.04C485.683 115.04 490.231 112.961 490.231 112.073H492.143C492.144 115.415 484.222 116.937 476.861 116.937ZM476.861 124.092C469.501 124.092 461.58 122.57 461.58 119.228H463.492C463.492 120.116 468.041 122.195 476.861 122.195C485.683 122.195 490.231 120.115 490.231 119.228H492.143C492.144 122.57 484.222 124.092 476.861 124.092Z" fill="#333333"/>
<path d="M461.592 97.8352H463.504V119.614H461.592V97.8352ZM490.207 97.8352H492.12V119.614H490.207V97.8352ZM469.041 142.621H484.683V144.518H469.041V142.621Z" fill="#333333"/>
<path d="M455.804 130.401L465.302 120.978L466.654 122.32L457.157 131.742L455.804 130.401Z" fill="#333333"/>
<path d="M487.218 122.32L488.57 120.979L498.068 130.401L496.716 131.742L487.218 122.32Z" fill="#333333"/>
<path d="M568.119 224.931L569.818 227.965C569.983 228.261 570.226 228.507 570.52 228.679C570.813 228.85 571.148 228.941 571.489 228.941C571.83 228.941 572.165 228.85 572.458 228.679C572.752 228.507 572.995 228.261 573.16 227.965L574.859 224.931C575.774 225.1 576.672 225.337 577.546 225.642L577.488 229.116C577.482 229.454 577.568 229.788 577.736 230.083C577.904 230.377 578.148 230.622 578.444 230.791C578.739 230.96 579.075 231.048 579.416 231.045C579.757 231.042 580.091 230.948 580.384 230.774L583.386 228.988C584.09 229.588 584.747 230.24 585.352 230.939L583.552 233.918C583.378 234.206 583.284 234.534 583.28 234.87C583.275 235.205 583.361 235.536 583.528 235.828C583.695 236.121 583.936 236.364 584.229 236.533C584.521 236.702 584.853 236.791 585.192 236.791H585.223L588.726 236.733C589.032 237.6 589.272 238.492 589.442 239.398L586.383 241.084C586.085 241.248 585.837 241.489 585.664 241.78C585.491 242.072 585.4 242.404 585.4 242.742C585.4 243.08 585.491 243.412 585.664 243.704C585.837 243.995 586.085 244.236 586.383 244.4L589.442 246.086C589.272 246.991 589.033 247.882 588.726 248.751L585.223 248.693H585.192C584.854 248.693 584.521 248.783 584.229 248.952C583.937 249.121 583.695 249.364 583.529 249.656C583.362 249.948 583.276 250.279 583.28 250.614C583.285 250.95 583.378 251.278 583.552 251.566L585.352 254.545C584.748 255.244 584.09 255.896 583.386 256.496L580.384 254.71C580.091 254.535 579.757 254.442 579.416 254.439C579.075 254.436 578.739 254.524 578.444 254.694C578.148 254.863 577.904 255.107 577.736 255.402C577.568 255.696 577.482 256.03 577.488 256.368L577.546 259.842C576.672 260.147 575.773 260.384 574.859 260.553L573.16 257.518C572.995 257.223 572.752 256.977 572.458 256.805C572.165 256.634 571.83 256.543 571.489 256.543C571.148 256.543 570.813 256.634 570.52 256.805C570.226 256.977 569.983 257.223 569.818 257.518L568.119 260.553C567.206 260.385 566.308 260.147 565.432 259.842L565.49 256.368C565.496 256.029 565.41 255.696 565.242 255.401C565.074 255.107 564.83 254.862 564.534 254.693C564.239 254.524 563.903 254.436 563.562 254.439C563.221 254.442 562.887 254.536 562.594 254.71L559.592 256.496C558.888 255.896 558.231 255.244 557.626 254.545L559.426 251.566C559.6 251.278 559.694 250.95 559.698 250.614C559.703 250.278 559.617 249.948 559.45 249.656C559.284 249.363 559.042 249.12 558.749 248.951C558.457 248.782 558.125 248.693 557.786 248.693H557.755L554.252 248.751C553.945 247.882 553.706 246.991 553.536 246.086L556.595 244.4C556.893 244.236 557.141 243.995 557.314 243.704C557.487 243.412 557.578 243.08 557.578 242.742C557.578 242.404 557.487 242.072 557.314 241.78C557.141 241.489 556.893 241.248 556.595 241.084L553.536 239.398C553.707 238.491 553.946 237.6 554.252 236.732L557.755 236.79H557.786C558.125 236.79 558.457 236.7 558.749 236.531C559.041 236.362 559.283 236.119 559.449 235.827C559.616 235.535 559.702 235.204 559.698 234.869C559.693 234.533 559.6 234.205 559.426 233.917L557.626 230.938C558.231 230.239 558.888 229.587 559.592 228.987L562.594 230.773C562.887 230.948 563.221 231.041 563.562 231.044C563.903 231.047 564.239 230.959 564.534 230.789C564.83 230.62 565.074 230.376 565.242 230.081C565.41 229.787 565.496 229.453 565.49 229.115L565.432 225.641C566.306 225.337 567.205 225.1 568.119 224.931M571.362 252.159C576.722 252.159 581.082 247.833 581.082 242.516C581.082 237.199 576.722 232.873 571.362 232.873C566.002 232.873 561.642 237.2 561.642 242.516C561.642 247.833 566.002 252.159 571.362 252.159ZM573.832 222.86L571.489 227.044L569.146 222.86C567.161 223.088 565.264 223.599 563.497 224.356L563.577 229.148L559.436 226.685C557.865 227.847 556.473 229.228 555.302 230.786L557.785 234.896L552.955 234.816C552.179 236.601 551.671 238.489 551.447 240.42L555.665 242.745L551.447 245.07C551.677 247.039 552.192 248.921 552.955 250.674L557.785 250.594L555.302 254.703C556.473 256.261 557.865 257.642 559.436 258.804L563.577 256.34L563.497 261.132C565.296 261.902 567.199 262.406 569.146 262.628L571.489 258.444L573.832 262.628C575.817 262.401 577.714 261.889 579.481 261.132L579.401 256.34L583.543 258.804C585.113 257.642 586.505 256.261 587.677 254.703L585.194 250.594L590.024 250.674C590.8 248.889 591.308 247.001 591.532 245.07L587.314 242.745L591.532 240.42C591.308 238.489 590.8 236.601 590.024 234.816L585.194 234.896L587.677 230.786C586.505 229.228 585.113 227.847 583.543 226.685L579.401 229.148L579.481 224.356C577.682 223.586 575.779 223.082 573.832 222.86V222.86ZM571.362 250.262C569.291 250.262 567.305 249.446 565.841 247.993C564.377 246.541 563.554 244.571 563.554 242.516C563.554 240.462 564.377 238.492 565.841 237.039C567.305 235.586 569.291 234.77 571.362 234.77C573.433 234.77 575.418 235.586 576.883 237.039C578.347 238.492 579.169 240.462 579.169 242.516C579.169 244.571 578.347 246.541 576.883 247.993C575.418 249.446 573.433 250.262 571.362 250.262Z" fill="#333333"/>
<path d="M571.49 239.951C572.236 239.952 572.951 240.246 573.479 240.77C574.006 241.293 574.303 242.003 574.304 242.743C574.304 244.282 573.042 245.534 571.49 245.534C569.938 245.534 568.676 244.282 568.676 242.743C568.677 242.003 568.974 241.293 569.501 240.77C570.029 240.246 570.744 239.952 571.49 239.951M571.49 238.054C570.237 238.054 569.035 238.548 568.148 239.428C567.262 240.307 566.764 241.499 566.764 242.743C566.764 243.986 567.262 245.179 568.148 246.058C569.035 246.938 570.237 247.432 571.49 247.432C572.743 247.432 573.945 246.938 574.832 246.058C575.718 245.179 576.216 243.986 576.216 242.743C576.216 241.499 575.718 240.307 574.832 239.428C573.945 238.548 572.743 238.054 571.49 238.054V238.054ZM571.49 207.169C572.512 207.17 573.493 207.573 574.215 208.29C574.938 209.007 575.345 209.98 575.346 210.994C575.346 213.104 573.616 214.82 571.49 214.82C569.364 214.82 567.634 213.104 567.634 210.994C567.635 209.98 568.042 209.007 568.765 208.29C569.487 207.573 570.468 207.17 571.49 207.169M571.49 205.271C569.96 205.271 568.493 205.874 567.411 206.948C566.33 208.021 565.722 209.476 565.722 210.994C565.722 212.512 566.33 213.967 567.411 215.041C568.493 216.114 569.96 216.717 571.49 216.717C573.02 216.717 574.487 216.114 575.569 215.041C576.65 213.967 577.258 212.512 577.258 210.994C577.258 209.476 576.65 208.021 575.569 206.948C574.487 205.874 573.02 205.271 571.49 205.271V205.271ZM601.815 238.918C602.838 238.919 603.818 239.323 604.541 240.04C605.264 240.757 605.67 241.73 605.671 242.744C605.671 244.853 603.942 246.569 601.815 246.569C599.689 246.569 597.96 244.853 597.96 242.744C597.961 241.73 598.368 240.758 599.091 240.04C599.813 239.323 600.793 238.92 601.815 238.918M601.815 237.021C601.058 237.021 600.308 237.169 599.608 237.457C598.908 237.744 598.272 238.166 597.737 238.697C597.201 239.229 596.776 239.86 596.486 240.554C596.197 241.248 596.047 241.992 596.047 242.744C596.047 243.495 596.197 244.24 596.486 244.934C596.776 245.628 597.201 246.259 597.737 246.79C598.272 247.322 598.908 247.743 599.608 248.031C600.308 248.318 601.058 248.466 601.815 248.466C603.345 248.466 604.812 247.864 605.894 246.79C606.976 245.717 607.584 244.262 607.584 242.744C607.584 241.226 606.976 239.771 605.894 238.697C604.812 237.624 603.345 237.021 601.815 237.021V237.021ZM593.229 216.605C594.251 216.606 595.231 217.009 595.954 217.726C596.677 218.444 597.084 219.416 597.085 220.43C597.085 222.54 595.355 224.256 593.229 224.256C591.102 224.256 589.373 222.54 589.373 220.43C589.374 219.416 589.78 218.444 590.503 217.726C591.226 217.009 592.206 216.606 593.229 216.605M593.229 214.708C591.699 214.708 590.232 215.311 589.15 216.384C588.068 217.457 587.461 218.912 587.461 220.43C587.461 221.948 588.068 223.404 589.15 224.477C590.232 225.55 591.699 226.153 593.229 226.153C594.759 226.153 596.226 225.55 597.307 224.477C598.389 223.404 598.997 221.948 598.997 220.43C598.997 218.912 598.389 217.457 597.307 216.384C596.226 215.311 594.759 214.708 593.229 214.708ZM548.264 216.605C549.286 216.606 550.266 217.009 550.989 217.726C551.712 218.444 552.118 219.416 552.119 220.43C552.119 222.54 550.39 224.256 548.264 224.256C546.137 224.256 544.408 222.54 544.408 220.43C544.409 219.416 544.816 218.444 545.539 217.727C546.261 217.01 547.241 216.606 548.264 216.605M548.264 214.708C546.734 214.708 545.267 215.311 544.185 216.384C543.103 217.457 542.495 218.912 542.495 220.43C542.495 221.948 543.103 223.404 544.185 224.477C545.267 225.55 546.734 226.153 548.264 226.153C549.793 226.153 551.26 225.55 552.342 224.477C553.424 223.404 554.032 221.948 554.032 220.43C554.032 218.912 553.424 217.457 552.342 216.384C551.26 215.311 549.793 214.708 548.264 214.708ZM540.739 238.918C541.761 238.919 542.742 239.323 543.464 240.04C544.187 240.757 544.594 241.73 544.595 242.744C544.595 244.853 542.865 246.569 540.739 246.569C538.613 246.569 536.883 244.853 536.883 242.744C536.885 241.73 537.291 240.758 538.014 240.04C538.737 239.323 539.717 238.92 540.739 238.918M540.739 237.021C539.982 237.021 539.232 237.169 538.532 237.457C537.832 237.744 537.196 238.166 536.66 238.697C536.125 239.229 535.7 239.86 535.41 240.554C535.12 241.248 534.971 241.992 534.971 242.744C534.971 243.495 535.12 244.24 535.41 244.934C535.7 245.628 536.125 246.259 536.66 246.79C537.196 247.322 537.832 247.743 538.532 248.031C539.232 248.318 539.982 248.466 540.739 248.466C542.269 248.466 543.736 247.864 544.818 246.79C545.899 245.717 546.507 244.262 546.507 242.744C546.507 241.226 545.899 239.771 544.818 238.697C543.736 237.624 542.269 237.021 540.739 237.021V237.021Z" fill="#333333"/>
<path d="M545.175 241.794H555.999V243.691H545.175V241.794ZM586.693 241.794H597.517V243.691H586.693V241.794ZM570.534 215.598H572.446V227.791H570.534V215.598Z" fill="#333333"/>
<path d="M550.863 224.695L552.146 223.289L558.42 228.927L557.137 230.332L550.863 224.695Z" fill="#333333"/>
<path d="M583.439 228.461L588.585 223.356L589.937 224.698L584.791 229.803L583.439 228.461Z" fill="#333333"/>
<path d="M184.864 187.604C181.873 177.551 172.397 170.531 161.821 170.531C151.306 170.531 141.847 177.5 138.817 187.476L136.986 186.929C140.257 176.158 150.47 168.634 161.821 168.634C173.238 168.634 183.468 176.214 186.698 187.067L184.864 187.604ZM146.964 209.671H138.389C138.136 209.671 137.893 209.571 137.713 209.393C137.534 209.215 137.433 208.974 137.433 208.722V192.453C137.433 192.201 137.534 191.96 137.713 191.782C137.893 191.604 138.136 191.504 138.389 191.504H146.964C147.217 191.504 147.46 191.604 147.64 191.782C147.819 191.96 147.92 192.201 147.92 192.453V208.722C147.92 208.974 147.819 209.215 147.64 209.393C147.46 209.571 147.217 209.671 146.964 209.671V209.671ZM139.345 207.774H146.007V193.401H139.345V207.774ZM166.129 209.671H157.554C157.301 209.671 157.057 209.571 156.878 209.393C156.699 209.215 156.598 208.974 156.598 208.722V192.453C156.598 192.201 156.699 191.96 156.878 191.782C157.057 191.604 157.301 191.504 157.554 191.504H166.129C166.382 191.504 166.625 191.604 166.805 191.782C166.984 191.96 167.085 192.201 167.085 192.453V208.722C167.085 208.974 166.984 209.215 166.805 209.393C166.625 209.571 166.382 209.671 166.129 209.671V209.671ZM158.51 207.774H165.172V193.401H158.51V207.774ZM185.294 209.671H176.719C176.466 209.671 176.222 209.571 176.043 209.393C175.864 209.215 175.763 208.974 175.763 208.722V192.453C175.763 192.201 175.864 191.96 176.043 191.782C176.222 191.604 176.466 191.504 176.719 191.504H185.294C185.547 191.504 185.79 191.604 185.97 191.782C186.149 191.96 186.25 192.201 186.25 192.453V208.722C186.25 208.974 186.149 209.215 185.97 209.393C185.79 209.571 185.547 209.671 185.294 209.671V209.671ZM177.675 207.774H184.337V193.401H177.675V207.774Z" fill="#333333"/>
<path d="M188.324 214.837H134.534C134.281 214.837 134.038 214.737 133.858 214.559C133.679 214.381 133.578 214.14 133.578 213.888V208.813C133.578 208.562 133.679 208.321 133.858 208.143C134.038 207.965 134.281 207.865 134.534 207.865H188.324C188.578 207.865 188.821 207.965 189 208.143C189.18 208.321 189.28 208.562 189.28 208.813V213.888C189.28 214.14 189.18 214.381 189 214.559C188.821 214.737 188.578 214.837 188.324 214.837ZM135.491 212.94H187.369V209.762H135.491V212.94Z" fill="#333333"/>
<path d="M192.634 221.748H130.504C130.251 221.748 130.008 221.648 129.828 221.47C129.649 221.292 129.548 221.051 129.548 220.799V214.047C129.548 213.796 129.649 213.555 129.828 213.377C130.008 213.199 130.251 213.099 130.504 213.099H192.634C192.888 213.099 193.131 213.199 193.31 213.377C193.49 213.555 193.591 213.796 193.591 214.047V220.799C193.591 221.051 193.49 221.292 193.31 221.47C193.131 221.648 192.888 221.748 192.634 221.748ZM131.46 219.851H191.678V214.996H131.46V219.851ZM192.495 193.018H130.365C130.111 193.018 129.868 192.918 129.689 192.74C129.509 192.562 129.409 192.321 129.409 192.07V186.593C129.409 186.341 129.509 186.1 129.689 185.922C129.868 185.744 130.111 185.644 130.365 185.644H192.495C192.748 185.644 192.992 185.744 193.171 185.922C193.35 186.1 193.451 186.341 193.451 186.593V192.07C193.451 192.321 193.35 192.562 193.171 192.74C192.992 192.918 192.748 193.018 192.495 193.018ZM131.321 191.121H191.539V187.541H131.321V191.121ZM161.841 175.982C162.484 175.983 163.1 176.237 163.554 176.687C164.009 177.138 164.264 177.749 164.265 178.387C164.264 179.024 164.009 179.635 163.554 180.086C163.1 180.537 162.484 180.791 161.841 180.791C161.199 180.791 160.583 180.537 160.128 180.086C159.674 179.635 159.418 179.024 159.418 178.387C159.418 177.749 159.674 177.138 160.128 176.687C160.583 176.237 161.199 175.983 161.841 175.982M161.841 174.085C161.267 174.077 160.696 174.182 160.162 174.394C159.629 174.606 159.143 174.922 158.734 175.322C158.324 175.722 157.999 176.199 157.777 176.725C157.555 177.251 157.441 177.816 157.441 178.386C157.441 178.956 157.555 179.521 157.777 180.047C157.999 180.573 158.324 181.05 158.733 181.45C159.142 181.851 159.628 182.166 160.162 182.378C160.695 182.591 161.266 182.696 161.84 182.688C162.979 182.671 164.065 182.21 164.865 181.406C165.664 180.601 166.112 179.517 166.112 178.387C166.113 177.257 165.665 176.172 164.865 175.368C164.066 174.563 162.98 174.102 161.841 174.085V174.085ZM160.982 155.037H162.894V169.77H160.982V155.037Z" fill="#333333"/>
<path d="M168.415 159.77V163.474H162.823V159.77H168.415ZM170.327 157.873H160.911V165.371H170.327V157.873Z" fill="#333333"/>
<path d="M173.52 160.892L173.08 161.365C172.761 161.709 172.581 162.159 172.575 162.627C172.569 163.095 172.738 163.549 173.049 163.901L173.663 164.596H170.376V160.892H173.52ZM177.88 158.995H168.464V166.493H177.88L174.487 162.65L177.88 158.995Z" fill="#333333"/>
<path d="M121.279 412.304V424.078H113.537V412.304H121.279ZM122.062 410.406H112.753C112.13 410.406 111.624 410.908 111.624 411.527V424.855C111.624 425.473 112.13 425.975 112.753 425.975H122.062C122.685 425.975 123.191 425.473 123.191 424.855V411.527C123.191 411.38 123.162 411.234 123.105 411.098C123.049 410.962 122.966 410.838 122.861 410.734C122.756 410.63 122.631 410.548 122.494 410.491C122.357 410.435 122.21 410.406 122.062 410.406V410.406ZM155.674 406.792V424.078H147.932V406.792H155.674ZM156.457 404.895H147.148C146.525 404.895 146.019 405.397 146.019 406.016V424.855C146.019 425.473 146.525 425.975 147.148 425.975H156.457C157.08 425.975 157.586 425.473 157.586 424.855V406.016C157.586 405.868 157.557 405.723 157.5 405.587C157.443 405.451 157.36 405.327 157.255 405.223C157.15 405.119 157.026 405.037 156.889 404.98C156.752 404.924 156.605 404.895 156.457 404.895V404.895ZM172.867 395.123V424.077H165.132V395.123H172.867ZM173.65 393.226H164.348C163.725 393.226 163.219 393.728 163.219 394.347V424.855C163.219 425.473 163.725 425.975 164.348 425.975H173.65C174.274 425.975 174.779 425.473 174.779 424.855V394.347C174.779 393.728 174.274 393.226 173.65 393.226V393.226ZM138.476 400.494V424.078H130.735V400.494H138.476ZM139.259 398.597H129.951C129.327 398.597 128.822 399.099 128.822 399.717V424.855C128.822 425.473 129.327 425.975 129.951 425.975H139.259C139.883 425.975 140.388 425.473 140.388 424.855V399.717C140.389 399.57 140.359 399.424 140.303 399.288C140.246 399.152 140.163 399.029 140.058 398.925C139.953 398.821 139.829 398.738 139.692 398.682C139.555 398.626 139.408 398.597 139.259 398.597V398.597Z" fill="#333333"/>
<path d="M119.908 389.949L131.561 380.231L132.791 381.683L121.138 391.401L119.908 389.949Z" fill="#333333"/>
<path d="M138.325 382.227L139.367 380.637L148.979 386.839L147.937 388.429L138.325 382.227Z" fill="#333333"/>
<path d="M154.867 384.553L165.216 372.346L166.679 373.567L156.33 385.774L154.867 384.553Z" fill="#333333"/>
<path d="M117.409 389.595C119.572 389.595 121.332 391.342 121.332 393.487C121.332 395.633 119.571 397.379 117.409 397.379C115.246 397.379 113.486 395.633 113.486 393.487C113.486 391.342 115.245 389.595 117.409 389.595ZM117.409 387.698C115.861 387.698 114.377 388.308 113.283 389.394C112.188 390.479 111.574 391.952 111.574 393.487C111.574 395.023 112.188 396.495 113.283 397.581C114.377 398.666 115.861 399.276 117.409 399.276C118.956 399.276 120.44 398.666 121.535 397.581C122.629 396.495 123.244 395.023 123.244 393.487C123.244 391.952 122.629 390.479 121.535 389.394C120.44 388.308 118.956 387.698 117.409 387.698ZM153.017 385.128C154.057 385.129 155.054 385.539 155.789 386.269C156.525 386.999 156.938 387.988 156.939 389.02C156.939 391.166 155.179 392.911 153.017 392.911C150.854 392.911 149.094 391.165 149.094 389.02C149.095 387.988 149.508 386.998 150.244 386.269C150.979 385.539 151.977 385.129 153.017 385.128ZM153.017 383.231C151.469 383.231 149.985 383.84 148.891 384.926C147.796 386.012 147.182 387.484 147.182 389.02C147.182 390.555 147.796 392.027 148.891 393.113C149.985 394.199 151.469 394.808 153.017 394.808C154.564 394.808 156.048 394.199 157.143 393.113C158.237 392.027 158.852 390.555 158.852 389.02C158.852 387.484 158.237 386.012 157.143 384.926C156.048 383.84 154.564 383.231 153.017 383.231V383.231ZM169.016 365.72C170.056 365.722 171.053 366.132 171.788 366.862C172.524 367.591 172.938 368.58 172.939 369.612C172.939 371.759 171.179 373.504 169.016 373.504C166.853 373.504 165.093 371.758 165.093 369.612C165.094 368.58 165.508 367.591 166.243 366.862C166.979 366.132 167.976 365.722 169.016 365.72ZM169.016 363.823C167.468 363.823 165.984 364.433 164.89 365.519C163.796 366.604 163.181 368.077 163.181 369.612C163.181 371.148 163.796 372.62 164.89 373.706C165.984 374.791 167.468 375.401 169.016 375.401C170.563 375.401 172.048 374.791 173.142 373.706C174.236 372.62 174.851 371.148 174.851 369.612C174.851 368.077 174.236 366.604 173.142 365.519C172.048 364.433 170.563 363.823 169.016 363.823ZM135.316 374.85C137.48 374.85 139.239 376.596 139.239 378.742C139.239 380.888 137.479 382.634 135.316 382.634C133.154 382.634 131.394 380.888 131.394 378.742C131.394 376.596 133.153 374.85 135.316 374.85ZM135.316 372.953C133.769 372.953 132.285 373.563 131.19 374.649C130.096 375.734 129.481 377.207 129.481 378.742C129.481 380.277 130.096 381.75 131.19 382.835C132.285 383.921 133.769 384.531 135.316 384.531C136.864 384.531 138.348 383.921 139.442 382.835C140.537 381.75 141.151 380.277 141.151 378.742C141.151 377.207 140.537 375.734 139.442 374.649C138.348 373.563 136.864 372.953 135.316 372.953Z" fill="#333333"/>
<path d="M563.552 455.595C563.802 455.595 564.047 455.663 564.261 455.792C564.475 455.921 564.649 456.105 564.764 456.325C564.88 456.545 564.933 456.792 564.916 457.04C564.9 457.288 564.816 457.526 564.673 457.73L555.669 470.548C555.557 470.709 555.41 470.844 555.24 470.943C555.069 471.042 554.88 471.104 554.683 471.123C554.486 471.143 554.288 471.12 554.101 471.056C553.915 470.992 553.744 470.889 553.601 470.753L546.707 464.213C546.577 464.09 546.473 463.942 546.401 463.779C546.328 463.616 546.289 463.44 546.285 463.262C546.281 463.084 546.312 462.907 546.377 462.741C546.442 462.575 546.54 462.423 546.664 462.294C546.788 462.165 546.937 462.062 547.101 461.99C547.265 461.918 547.443 461.879 547.622 461.875C547.802 461.871 547.98 461.902 548.148 461.967C548.315 462.031 548.468 462.128 548.598 462.251L554.338 467.695L562.428 456.178C562.694 455.798 563.119 455.595 563.552 455.595M563.553 453.698C562.479 453.698 561.472 454.22 560.859 455.093L554.046 464.793L549.92 460.88C549.311 460.299 548.499 459.976 547.654 459.978C546.763 459.978 545.899 460.345 545.282 460.983C544.984 461.291 544.75 461.655 544.594 462.054C544.438 462.452 544.363 462.878 544.374 463.305C544.394 464.174 544.754 464.984 545.387 465.584L552.281 472.125C552.622 472.45 553.031 472.697 553.478 472.85C553.925 473.003 554.4 473.058 554.871 473.011C555.827 472.918 556.69 472.415 557.239 471.633L566.243 458.815C566.585 458.326 566.786 457.755 566.824 457.162C566.862 456.568 566.735 455.976 566.458 455.449C566.181 454.922 565.764 454.48 565.251 454.171C564.739 453.863 564.152 453.699 563.553 453.698V453.698Z" fill="#333333"/>
<path d="M583.554 441.11C583.717 441.11 583.848 441.241 583.848 441.402V479.145C583.848 479.306 583.717 479.437 583.554 479.437H527.839C527.761 479.437 527.686 479.406 527.631 479.351C527.576 479.297 527.545 479.222 527.545 479.145V441.402C527.545 441.241 527.677 441.11 527.839 441.11H583.554ZM583.554 439.213H527.839C527.254 439.213 526.693 439.444 526.279 439.854C525.865 440.265 525.633 440.822 525.633 441.402V479.145C525.633 479.726 525.865 480.282 526.279 480.693C526.693 481.103 527.254 481.334 527.839 481.334H583.554C584.139 481.334 584.701 481.103 585.114 480.693C585.528 480.282 585.761 479.726 585.761 479.145V441.402C585.761 440.822 585.528 440.265 585.114 439.854C584.701 439.444 584.139 439.213 583.554 439.213V439.213Z" fill="#333333"/>
<path d="M527.069 448.172H584.729V450.069H527.069V448.172ZM533.07 445.599H531.307C531.054 445.599 530.81 445.499 530.631 445.321C530.452 445.143 530.351 444.902 530.351 444.65C530.351 444.398 530.452 444.157 530.631 443.979C530.81 443.801 531.054 443.701 531.307 443.701H533.07C533.324 443.701 533.567 443.801 533.746 443.979C533.926 444.157 534.026 444.398 534.026 444.65C534.026 444.902 533.926 445.143 533.746 445.321C533.567 445.499 533.324 445.599 533.07 445.599ZM538.75 445.599H536.987C536.734 445.599 536.491 445.499 536.311 445.321C536.132 445.143 536.031 444.902 536.031 444.65C536.031 444.398 536.132 444.157 536.311 443.979C536.491 443.801 536.734 443.701 536.987 443.701H538.75C539.004 443.701 539.247 443.801 539.426 443.979C539.606 444.157 539.706 444.398 539.706 444.65C539.706 444.902 539.606 445.143 539.426 445.321C539.247 445.499 539.004 445.599 538.75 445.599ZM544.431 445.599H542.668C542.414 445.599 542.171 445.499 541.991 445.321C541.812 445.143 541.711 444.902 541.711 444.65C541.711 444.398 541.812 444.157 541.991 443.979C542.171 443.801 542.414 443.701 542.668 443.701H544.431C544.684 443.701 544.927 443.801 545.107 443.979C545.286 444.157 545.387 444.398 545.387 444.65C545.387 444.902 545.286 445.143 545.107 445.321C544.927 445.499 544.684 445.599 544.431 445.599ZM581.054 435.093H530.34C530.086 435.093 529.843 434.993 529.663 434.816C529.484 434.638 529.383 434.396 529.383 434.145C529.383 433.893 529.484 433.652 529.663 433.474C529.843 433.296 530.086 433.196 530.34 433.196H581.054C581.307 433.196 581.551 433.296 581.73 433.474C581.909 433.652 582.01 433.893 582.01 434.145C582.01 434.396 581.909 434.638 581.73 434.816C581.551 434.993 581.307 435.093 581.054 435.093ZM577.983 428.753H533.411C533.157 428.753 532.914 428.653 532.734 428.475C532.555 428.298 532.454 428.056 532.454 427.805C532.454 427.553 532.555 427.312 532.734 427.134C532.914 426.956 533.157 426.856 533.411 426.856H577.983C578.236 426.856 578.48 426.956 578.659 427.134C578.838 427.312 578.939 427.553 578.939 427.805C578.939 428.056 578.838 428.298 578.659 428.475C578.48 428.653 578.236 428.753 577.983 428.753V428.753ZM574.613 422.412H536.782C536.528 422.412 536.285 422.312 536.106 422.134C535.926 421.957 535.826 421.715 535.826 421.464C535.826 421.212 535.926 420.971 536.106 420.793C536.285 420.615 536.528 420.515 536.782 420.515H574.613C574.866 420.515 575.109 420.615 575.289 420.793C575.468 420.971 575.569 421.212 575.569 421.464C575.569 421.715 575.468 421.957 575.289 422.134C575.109 422.312 574.866 422.412 574.613 422.412Z" fill="#333333"/>
<path d="M282.26 101.351H280.348V93.0108C280.348 92.7592 280.448 92.518 280.628 92.3401C280.807 92.1622 281.05 92.0623 281.304 92.0623H338.141C338.395 92.0623 338.638 92.1622 338.817 92.3401C338.996 92.518 339.097 92.7592 339.097 93.0108V99.8176H337.185V93.9594H282.26V101.351V101.351Z" fill="#333333"/>
<path d="M308.208 80.4037H310.121V113.765H308.208V80.4037ZM292.278 117.883H292.275L270.155 117.806C269.902 117.805 269.659 117.705 269.481 117.527C269.302 117.349 269.202 117.108 269.202 116.857V101.026C269.202 100.774 269.302 100.533 269.482 100.355C269.661 100.177 269.904 100.077 270.158 100.077H292.278C292.532 100.077 292.775 100.177 292.954 100.355C293.133 100.533 293.234 100.774 293.234 101.026V116.934C293.234 117.059 293.21 117.182 293.162 117.297C293.114 117.412 293.043 117.517 292.954 117.605C292.865 117.693 292.76 117.763 292.644 117.811C292.528 117.858 292.404 117.883 292.278 117.883V117.883ZM271.114 115.913L291.322 115.983V101.975H271.114V115.913ZM349.272 117.883H349.269L327.149 117.806C326.896 117.805 326.653 117.705 326.475 117.527C326.296 117.349 326.196 117.108 326.196 116.857V101.026C326.196 100.774 326.296 100.533 326.476 100.355C326.655 100.177 326.898 100.077 327.152 100.077H349.272C349.525 100.077 349.769 100.177 349.948 100.355C350.127 100.533 350.228 100.774 350.228 101.026V116.934C350.228 117.059 350.203 117.182 350.155 117.297C350.107 117.412 350.037 117.517 349.948 117.605C349.859 117.693 349.754 117.763 349.638 117.811C349.522 117.858 349.397 117.883 349.272 117.883V117.883ZM328.108 115.913L348.316 115.983V101.975H328.108V115.913Z" fill="#333333"/>
<path d="M320.186 130.546H320.184L298.064 130.469C297.811 130.468 297.569 130.368 297.39 130.19C297.211 130.012 297.111 129.772 297.111 129.52V113.689C297.111 113.438 297.212 113.196 297.391 113.018C297.57 112.841 297.814 112.741 298.067 112.741H320.186C320.44 112.741 320.683 112.841 320.862 113.018C321.042 113.196 321.143 113.438 321.143 113.689V129.597C321.143 129.722 321.118 129.845 321.07 129.96C321.022 130.076 320.952 130.18 320.863 130.268C320.774 130.356 320.669 130.426 320.552 130.474C320.436 130.521 320.312 130.546 320.186 130.546ZM299.023 128.576L319.23 128.646V114.639H299.023V128.576V128.576ZM320.186 81.6567H320.184L298.064 81.5799C297.811 81.5791 297.569 81.4788 297.39 81.301C297.211 81.1232 297.111 80.8824 297.111 80.6313V64.8C297.111 64.5485 297.212 64.3072 297.391 64.1293C297.57 63.9514 297.814 63.8515 298.067 63.8515H320.186C320.44 63.8515 320.683 63.9514 320.862 64.1293C321.042 64.3072 321.143 64.5485 321.143 64.8V80.7081C321.143 80.8327 321.118 80.9562 321.07 81.0713C321.022 81.1864 320.952 81.291 320.863 81.3792C320.774 81.4673 320.669 81.5371 320.552 81.5847C320.436 81.6324 320.312 81.6568 320.186 81.6567ZM299.023 79.6866L319.23 79.7568V65.7495H299.023V79.6866Z" fill="#333333"/>
<path d="M293.009 546.56H230.871C230.617 546.56 230.374 546.46 230.195 546.282C230.015 546.104 229.915 545.863 229.915 545.612V501.825C229.915 501.494 230.089 501.187 230.373 501.015L261.442 482.192C261.592 482.101 261.764 482.053 261.94 482.053C262.116 482.053 262.288 482.101 262.438 482.192L293.508 501.015C293.791 501.187 293.965 501.494 293.965 501.825V545.612C293.965 545.863 293.865 546.104 293.685 546.282C293.506 546.46 293.263 546.56 293.009 546.56V546.56ZM231.827 544.663H292.053V502.357L261.94 484.113L231.827 502.357V544.663V544.663Z" fill="#333333"/>
<path d="M285.302 545.612H283.39V515.255H240.49V545.612H238.578V514.307C238.578 514.055 238.679 513.814 238.858 513.636C239.037 513.458 239.28 513.358 239.534 513.358H284.346C284.6 513.358 284.843 513.458 285.022 513.636C285.202 513.814 285.302 514.055 285.302 514.307V545.612Z" fill="#333333"/>
<path d="M239.727 537.031H284.153V538.928H239.727V537.031ZM239.727 528.932H284.153V530.829H239.727V528.932ZM239.727 520.834H284.153V522.731H239.727V520.834ZM250.232 504.215V509.048H240.518V504.215H250.232ZM252.144 502.318H238.606V510.945H252.144V502.318ZM266.754 504.215V509.048H257.04V504.215H266.754ZM268.666 502.318H255.128V510.945H268.666V502.318ZM283.276 504.215V509.048H273.562V504.215H283.276ZM285.188 502.318H271.65V510.945H285.188V502.318Z" fill="#333333"/>
<path d="M417.07 501.411C434.095 501.411 447.945 515.153 447.945 532.043C447.945 548.933 434.094 562.674 417.07 562.674C400.045 562.674 386.194 548.932 386.194 532.043C386.193 515.153 400.044 501.411 417.07 501.411ZM417.07 499.514C398.961 499.514 384.282 514.078 384.282 532.043C384.282 550.008 398.962 564.571 417.07 564.571C435.177 564.571 449.857 550.007 449.857 532.043C449.857 514.078 435.177 499.514 417.07 499.514Z" fill="#333333"/>
<path d="M436.478 532.043V532.036C436.474 529.792 438.921 528.385 440.881 529.505L440.893 529.512C442.852 530.63 442.857 533.433 440.902 534.559L440.893 534.565L440.891 534.566C438.935 535.693 436.482 534.294 436.478 532.05V532.043H436.478ZM397.662 532.043V532.049C397.666 534.293 395.218 535.7 393.258 534.58L393.247 534.573C391.288 533.455 391.283 530.652 393.237 529.526L393.247 529.52L393.249 529.519C395.205 528.393 397.657 529.791 397.661 532.035V532.043H397.662Z" fill="#333333"/>
<path d="M397.065 531.094H407.383V532.991H397.065V531.094ZM427.227 531.094H438.217V532.991H427.227V531.094ZM417.07 551.297H417.076C419.339 551.293 420.756 553.722 419.627 555.666L419.621 555.677C418.493 557.621 415.668 557.627 414.533 555.687L414.527 555.677L414.526 555.676C413.391 553.735 414.8 551.302 417.062 551.298H417.07V551.297ZM417.07 512.788H417.063C414.801 512.792 413.383 510.363 414.512 508.419L414.519 508.408C415.646 506.464 418.471 506.458 419.606 508.398L419.612 508.408L419.613 508.409C420.749 510.35 419.339 512.783 417.077 512.787H417.07V512.788Z" fill="#333333"/>
<path d="M416.113 512.196H418.025V521.899H416.113V512.196ZM416.113 541.29H418.025V553.777H416.113V541.29Z" fill="#333333"/>
<path d="M414.514 521.061L415.398 522.64C415.563 522.935 415.805 523.181 416.099 523.353C416.393 523.524 416.728 523.615 417.069 523.615C417.41 523.615 417.744 523.524 418.038 523.353C418.332 523.181 418.574 522.935 418.74 522.64L419.623 521.061C419.882 521.12 420.137 521.187 420.389 521.264L420.359 523.07C420.353 523.409 420.439 523.742 420.607 524.037C420.775 524.331 421.019 524.576 421.315 524.745C421.61 524.914 421.946 525.002 422.287 524.999C422.628 524.996 422.962 524.902 423.255 524.728L424.815 523.8C425.008 523.979 425.196 524.164 425.376 524.356L424.44 525.905C424.266 526.192 424.172 526.521 424.168 526.857C424.164 527.192 424.249 527.523 424.416 527.815C424.583 528.107 424.825 528.35 425.117 528.52C425.409 528.689 425.742 528.778 426.08 528.778H426.112L427.932 528.748C428.009 528.999 428.077 529.252 428.137 529.508L426.546 530.384C426.248 530.549 425.999 530.789 425.827 531.081C425.654 531.372 425.563 531.704 425.563 532.043C425.563 532.381 425.654 532.713 425.827 533.004C425.999 533.296 426.248 533.536 426.546 533.701L428.137 534.577C428.077 534.833 428.009 535.086 427.932 535.337L426.112 535.307H426.08C425.742 535.308 425.41 535.397 425.117 535.566C424.825 535.735 424.584 535.978 424.417 536.27C424.25 536.562 424.165 536.893 424.169 537.229C424.173 537.564 424.266 537.893 424.44 538.181L425.376 539.729C425.196 539.92 425.009 540.106 424.815 540.285L423.255 539.357C422.962 539.182 422.628 539.089 422.287 539.086C421.946 539.083 421.61 539.171 421.315 539.341C421.019 539.51 420.775 539.754 420.607 540.049C420.439 540.343 420.353 540.677 420.359 541.015L420.389 542.821C420.137 542.898 419.881 542.965 419.623 543.024L418.74 541.445C418.574 541.15 418.332 540.904 418.038 540.732C417.744 540.561 417.41 540.47 417.069 540.47C416.728 540.47 416.393 540.561 416.099 540.732C415.805 540.904 415.563 541.15 415.398 541.445L414.514 543.024C414.256 542.965 414.001 542.898 413.748 542.821L413.779 541.015C413.784 540.677 413.699 540.343 413.531 540.048C413.363 539.754 413.118 539.509 412.823 539.34C412.527 539.171 412.192 539.083 411.85 539.086C411.509 539.089 411.175 539.183 410.883 539.357L409.322 540.285C409.129 540.106 408.942 539.921 408.761 539.729L409.697 538.181C409.871 537.893 409.965 537.564 409.97 537.229C409.974 536.893 409.888 536.562 409.722 536.27C409.555 535.978 409.313 535.735 409.021 535.566C408.728 535.397 408.396 535.307 408.058 535.307H408.026L406.206 535.337C406.128 535.086 406.06 534.833 406.001 534.577L407.592 533.701C407.89 533.536 408.138 533.296 408.311 533.004C408.484 532.713 408.575 532.381 408.575 532.043C408.575 531.704 408.484 531.372 408.311 531.081C408.138 530.789 407.89 530.549 407.592 530.384L406.001 529.508C406.06 529.252 406.128 528.999 406.206 528.748L408.026 528.778H408.058C408.396 528.777 408.728 528.688 409.02 528.519C409.312 528.35 409.554 528.107 409.721 527.815C409.887 527.523 409.973 527.192 409.969 526.856C409.965 526.521 409.871 526.192 409.697 525.905L408.761 524.356C408.942 524.165 409.128 523.979 409.322 523.8L410.883 524.728C411.175 524.903 411.509 524.996 411.851 524.999C412.192 525.002 412.527 524.914 412.823 524.744C413.118 524.575 413.363 524.331 413.531 524.036C413.699 523.742 413.784 523.409 413.779 523.07L413.748 521.264C414.001 521.187 414.256 521.12 414.514 521.061ZM416.986 538.884C420.871 538.884 424.033 535.749 424.033 531.893C424.033 528.038 420.872 524.901 416.986 524.901C413.1 524.901 409.938 528.037 409.938 531.893C409.938 535.749 413.1 538.884 416.986 538.884ZM418.61 518.966L417.069 521.718L415.528 518.966C414.222 519.116 412.975 519.452 411.812 519.95L411.865 523.101L409.141 521.48C408.108 522.244 407.193 523.153 406.423 524.177L408.056 526.88L404.879 526.827C404.369 528.001 404.035 529.243 403.888 530.513L406.662 532.043L403.888 533.572C404.039 534.866 404.378 536.104 404.879 537.258L408.056 537.205L406.423 539.908C407.193 540.932 408.108 541.841 409.141 542.605L411.865 540.984L411.812 544.136C412.974 544.634 414.222 544.969 415.528 545.119L417.069 542.367L418.61 545.119C419.89 544.973 421.142 544.642 422.325 544.136L422.273 540.984L424.997 542.605C426.029 541.841 426.945 540.932 427.715 539.908L426.082 537.205L429.258 537.258C429.76 536.105 430.098 534.867 430.25 533.572L427.476 532.043L430.25 530.513C430.102 529.243 429.768 528.002 429.258 526.827L426.082 526.88L427.715 524.177C426.945 523.153 426.029 522.244 424.997 521.48L422.273 523.101L422.325 519.95C421.142 519.443 419.89 519.112 418.61 518.966V518.966ZM416.986 536.987C415.624 536.987 414.317 536.451 413.354 535.495C412.391 534.539 411.85 533.244 411.85 531.892C411.85 530.541 412.391 529.245 413.354 528.289C414.317 527.334 415.624 526.797 416.986 526.797C418.348 526.797 419.654 527.334 420.617 528.289C421.58 529.245 422.121 530.541 422.121 531.892C422.121 533.244 421.58 534.539 420.617 535.495C419.654 536.451 418.348 536.987 416.986 536.987Z" fill="#333333"/>
<path d="M417.07 530.856C417.379 530.868 417.671 530.999 417.885 531.22C418.099 531.441 418.219 531.736 418.219 532.043C418.219 532.349 418.099 532.644 417.885 532.865C417.671 533.087 417.379 533.217 417.07 533.229C416.761 533.217 416.469 533.087 416.254 532.865C416.04 532.644 415.921 532.349 415.921 532.043C415.921 531.736 416.04 531.441 416.254 531.22C416.469 530.999 416.761 530.868 417.07 530.856M417.07 528.959C416.245 528.959 415.455 529.284 414.872 529.862C414.289 530.44 413.961 531.225 413.961 532.043C413.961 532.86 414.289 533.645 414.872 534.223C415.455 534.801 416.245 535.126 417.07 535.126C417.894 535.126 418.685 534.801 419.268 534.223C419.851 533.645 420.178 532.86 420.178 532.043C420.178 531.225 419.851 530.44 419.268 529.862C418.685 529.284 417.894 528.959 417.07 528.959V528.959Z" fill="#333333"/>
<defs>
<linearGradient id="paint0_linear_145_153" x1="62.8346" y1="313.54" x2="678.862" y2="313.54" gradientUnits="userSpaceOnUse">
<stop stop-color="#17C9C0"/>
<stop offset="0.168" stop-color="#00A9D7"/>
<stop offset="0.564" stop-color="#1CD0BB"/>
<stop offset="1" stop-color="#0FBEC8"/>
</linearGradient>
</defs>
</svg>
